<?xml version="1.0" encoding="UTF-8" standalone="no"?>
<!-- Generator: Adobe Illustrator 25.2.3, SVG Export Plug-In . SVG Version: 6.00 Build 0)  -->

<svg
   version="1.1"
   id="Layer_1"
   x="0px"
   y="0px"
   viewBox="0 0 45 60"
   style="enable-background:new 0 0 45 60;"
   xml:space="preserve"
   xmlns:xlink="http://www.w3.org/1999/xlink"
   xmlns="http://www.w3.org/2000/svg"
   xmlns:svg="http://www.w3.org/2000/svg"><defs
   id="defs320" />
<style
   type="text/css"
   id="style287">
	.st0{clip-path:url(#SVGID_2_);fill:#147350;}
	.st1{clip-path:url(#SVGID_2_);fill:#FF6C00;}
	.st2{clip-path:url(#SVGID_2_);fill:#EB0F2A;}
</style>
<g
   id="g315">
	<defs
   id="defs290">
		<rect
   id="SVGID_1_"
   width="45"
   height="59.9" />
	</defs>
	<clipPath
   id="SVGID_2_">
		<use
   xlink:href="#SVGID_1_"
   style="overflow:visible;"
   id="use292" />
	</clipPath>
	
	<path
   class="st0"
   d="M42.2,32.3c-0.9,0-1.5,0.4-2.1,0.9l-0.4,0.6l-0.1-0.1l0.5-0.8v-0.5h-3.2v10.6h2.9v-6.7c0-1.1,0.7-1.4,1.2-1.5   c0.5-0.1,1.1,0.2,1.1,0.8v7.4H45v-7.3C45,33.4,44,32.3,42.2,32.3"
   clip-path="url(#SVGID_2_)"
   id="path297" />
	<polygon
   class="st0"
   points="9.9,40.6 12.9,40.6 12.9,42.9 7,42.9 7,32.3 9.9,32.3  "
   clip-path="url(#SVGID_2_)"
   id="polygon299" />
	<polygon
   class="st0"
   points="0,42.9 5.9,42.9 5.9,40.8 2.9,40.8 2.9,38.5 5.9,38.5 5.9,36.5 2.9,36.5 2.9,34.5 5.9,34.5 5.9,32.3    0,32.3  "
   clip-path="url(#SVGID_2_)"
   id="polygon301" />
	<polygon
   class="st0"
   points="13.9,42.9 19.9,42.9 19.9,40.8 16.8,40.8 16.8,38.5 19.9,38.5 19.9,36.5 16.8,36.5 16.8,34.5    19.9,34.5 19.9,32.3 13.9,32.3  "
   clip-path="url(#SVGID_2_)"
   id="polygon303" />
	<polygon
   class="st0"
   points="29.9,42.9 35.9,42.9 35.9,40.8 32.8,40.8 32.8,38.5 35.9,38.5 35.9,36.5 32.8,36.5 32.8,34.5    35.9,34.5 35.9,32.3 29.9,32.3  "
   clip-path="url(#SVGID_2_)"
   id="polygon305" />
	<polygon
   class="st0"
   points="26.1,32.3 26.1,32.3 26.1,32.3 25,39 24.9,40.2 24.9,40.3 24.8,40.3 24.8,40.2 24.7,39 23.6,32.3    23.6,32.3 20.7,32.3 23.1,42.9 26.7,42.9 29.1,32.3  "
   clip-path="url(#SVGID_2_)"
   id="polygon307" />
	<path
   class="st1"
   d="M37.7,0H0v15h19.9C24.4,8.5,30.5,3.3,37.7,0"
   clip-path="url(#SVGID_2_)"
   id="path309" />
	<polygon
   class="st2"
   points="15,59.9 30,59.9 30,44.9 15,44.9  "
   clip-path="url(#SVGID_2_)"
   id="polygon311" />
	<path
   class="st2"
   d="M45,15V0C30.7,3.9,19.5,15.4,16.1,30h15.3C33.7,23.3,38.7,17.9,45,15"
   clip-path="url(#SVGID_2_)"
   id="path313" />
</g>
</svg>
