<?xml version="1.0" encoding="UTF-8" standalone="no"?>
<!-- Created with Inkscape (http://www.inkscape.org/) -->

<svg
   xmlns:dc="http://purl.org/dc/elements/1.1/"
   xmlns:cc="http://creativecommons.org/ns#"
   xmlns:rdf="http://www.w3.org/1999/02/22-rdf-syntax-ns#"
   xmlns:svg="http://www.w3.org/2000/svg"
   xmlns="http://www.w3.org/2000/svg"
   xmlns:sodipodi="http://sodipodi.sourceforge.net/DTD/sodipodi-0.dtd"
   xmlns:inkscape="http://www.inkscape.org/namespaces/inkscape"
   width="999.99921"
   height="900.08954"
   id="svg2"
   version="1.1"
   inkscape:version="0.48.5 r10040"
   sodipodi:docname="A.svg">
  <defs
     id="defs4" />
  <sodipodi:namedview
     id="base"
     pagecolor="#ffffff"
     bordercolor="#666666"
     borderopacity="1.0"
     inkscape:pageopacity="0.0"
     inkscape:pageshadow="2"
     inkscape:zoom="0.38669902"
     inkscape:cx="544.59056"
     inkscape:cy="37.02309"
     inkscape:document-units="px"
     inkscape:current-layer="layer1"
     showgrid="false"
     fit-margin-top="0"
     fit-margin-left="0"
     fit-margin-right="0"
     fit-margin-bottom="0"
     inkscape:window-width="1018"
     inkscape:window-height="997"
     inkscape:window-x="896"
     inkscape:window-y="17"
     inkscape:window-maximized="0" />
  <metadata
     id="metadata7">
    <rdf:RDF>
      <cc:Work
         rdf:about="">
        <dc:format>image/svg+xml</dc:format>
        <dc:type
           rdf:resource="http://purl.org/dc/dcmitype/StillImage" />
        <dc:title></dc:title>
      </cc:Work>
    </rdf:RDF>
  </metadata>
  <g
     inkscape:label="Layer 1"
     inkscape:groupmode="layer"
     id="layer1"
     transform="translate(131.5237,158.99128)">
    <path
       d="m 31.540997,610.60905 c -0.85755,19.6663 6.54589,37.8176 21.99593,53.9393 23.61096,24.6829 66.873923,44.878 125.072373,58.4272 50.22333,11.6768 110.30838,18.1227 169.20717,18.1227 l 2.15815,0 c 71.49035,-0.2144 174.68117,-7.9894 260.26377,-43.7632 60.9569,-25.4833 93.7578,-56.955 98.2313,-93.2433 3.2015,-25.9978 -3.6731,-49.0514 -35.4736,-64.2156 0,0 -2.6298,-0.2715 -4.1019,2.3297 -6.2601,11.0337 -12.3915,21.024 -21.3242,32.6437 -3.3444,4.3306 0.586,7.4178 0.586,7.4178 11.4196,8.8326 12.8202,20.8096 3.3158,32.2006 -8.4182,10.0761 -20.4952,24.1255 -70.79,44.0777 -41.4621,16.4647 -114.5961,36.1453 -227.4771,36.4597 l -2.20102,0 c -131.33244,0 -230.2641,-31.6289 -260.120833,-62.872 -6.24575,-6.5459 -9.29002,-12.8774 -9.01847,-18.823 0.80037,-18.723 26.798163,-29.1136 73.205433,-29.2851 l 0.80037,0 c 12.5487,0 25.09738,0.8433 37.54601,2.3297 9.31862,1.1434 18.27992,2.5726 26.91251,4.1876 19.89495,3.8161 39.23251,9.0185 57.41239,14.8784 l 0,-0.043 c 26.19788,8.5754 46.63594,17.7368 60.34231,23.5252 7.86078,3.3301 13.06321,5.5311 15.93598,6.3887 4.53066,1.3863 8.86124,1.9437 12.83453,1.6865 l 0.22861,-0.014 c 11.06229,-0.7575 19.6377,-8.1753 21.83872,-18.8945 1.92947,-9.3186 -0.91473,-19.4519 -11.66255,-24.44 -28.29887,-13.1346 -78.76516,-34.2587 -138.33569,-47.8651 -16.67918,-3.9446 -33.35835,-7.0604 -49.63734,-9.0327 -0.0859,-0.014 -0.17147,-0.029 -0.2572,-0.043 l 0.0148,0.014 c -12.53488,-1.5149 -24.8263,-2.3582 -36.66037,-2.3582 l -0.67175,0 c -72.076333,0.2144 -118.112003,29.4423 -120.170093,76.264 M 150.38191,438.47166 c 0,0 0.42877,4.33057 -2.44399,4.33057 l -9.96177,0 c -4.35917,0 -4.302,2.32966 -4.302,4.23055 l 0,38.46071 c 0,0 -0.52882,4.00185 5.03091,4.00185 l 85.18243,0 c 2.72984,0 5.25958,-1.55786 5.25958,-5.65976 l 0,-36.45978 c 0,-3.90182 -0.20004,-5.05951 -5.07379,-5.05951 l -7.78933,0 c -3.71601,0 -6.04567,0.18582 -6.04567,-3.51592 l 0,-29.81383 c 0,-13.26331 4.57355,-21.35278 11.50535,-28.28457 6.9175,-6.9318 20.25226,-14.67827 33.65849,-15.82165 12.67732,-1.07197 18.35138,0.2859 23.95398,0.81464 3.48734,0.3287 5.44539,-1.31494 5.44539,-4.10191 l 0,-49.5087 c 0,-2.92993 -0.75749,-5.7884 -6.81745,-6.44585 -6.05996,-0.64319 -30.34267,2.55833 -48.83697,15.20706 -16.02173,10.97653 -23.01069,29.25645 -24.36846,31.20021 -1.37207,1.94376 -3.70172,2.72984 -3.70172,-0.58603 l 0,-36.84569 c 0,-3.70171 -1.28637,-6.41726 -5.65977,-6.41726 l -56.72635,0 c -3.51592,0 -5.07379,0.10063 -5.07379,4.78794 l 0,37.88902 c 0,3.90182 3.90181,3.90182 3.90181,3.90182 0,0 4.47351,0.20003 7.98943,0.20003 3.51592,0 4.87369,0.97189 4.87369,5.05949 z m 204.86658,-38.87491 c 0,-24.18266 10.73356,-44.04902 35.77376,-44.04902 25.0545,0 35.78806,20.45234 35.78806,45.43538 0,24.98303 -15.60725,40.9476 -36.85998,40.9476 -21.23844,0 -34.70184,-18.16559 -34.70184,-42.33396 m -74.46315,-170.47918 0,37.44595 c 0,2.60121 1.32916,3.78749 4.91656,3.78749 l 7.06043,0 c 4.97373,0 5.27387,1.47211 5.27387,6.7317 l 0,158.5022 c 0,7.01753 -0.58603,7.21762 -5.55972,7.21762 l -10.23332,0 c -5.43109,0 -6.14572,1.85802 -6.14572,6.53161 l 0,33.91575 c 0,4.95944 2.04382,6.24575 7.01755,6.24575 l 60.5424,0 c 5.28818,0 5.84558,-2.14385 5.84558,-5.65976 l 0,-10.81932 c 0,-3.50162 4.28771,-1.45781 6.57448,1.07197 2.28678,2.52975 11.06228,13.84929 40.70463,16.4505 24.23982,2.11526 51.08081,-4.35917 66.87391,-24.82581 12.1056,-15.70729 21.4385,-30.81431 21.4385,-70.97582 0,-40.14723 -18.7087,-65.50185 -37.6317,-77.00721 -18.90882,-11.50534 -44.09194,-13.83499 -60.18513,-9.53299 -14.42098,3.87322 -27.26981,14.13513 -29.09924,16.35045 -1.78654,2.18673 -5.25958,3.90182 -5.25958,0.20004 l 0,-94.94412 c 0,-4.87368 -2.15814,-6.23145 -5.17383,-6.23145 l -62.04311,0 c -4.57355,0 -4.91656,1.74366 -4.91656,5.54543 m -269.039253,143.78108 -39.71845,0.11433 c -5.84557,0 -5.15954,-3.47304 -4.18766,-5.80269 0.97188,-2.34394 17.96549,-53.56772 19.13746,-56.88355 1.17198,-3.31583 4.4878004,-5.45968 6.4172704,-0.77185 1.92946,4.67361 20.0950396,54.5682 21.2670196,57.29804 1.15768,2.72984 0.98617,6.04567 -2.91564,6.04567 m 111.751903,111.5661 0,-35.08771 c 0,-2.64408 -2.54403,-6.53161 -6.88891,-6.53161 -1.60074,0 -9.07564,-0.0429 -10.43342,-0.0429 -7.403443,0 -9.161403,-6.81745 -9.161403,-6.81745 L 25.766887,244.6248 c 0,0 -1.6865,-7.8608 -8.53254,-14.49245 -6.83174,-6.63166 -22.4675796,-6.56019 -22.4675796,-6.56019 l -61.9716404,0 c -3.373,0 -5.84557,2.91563 -5.84557,5.53113 0,2.61551 -0.18581,31.70044 -0.18581,34.81618 0,3.13002 1.60075,6.24576 7.3034,6.24576 l 15.30711,0 c 5.01661,0 4.88798,3.67314 2.75842,7.57495 -2.15814,3.90182 -61.056927,159.43121 -61.814417,161.00336 -2.2439,4.71648 -5.34534,4.05902 -5.34534,4.05902 l -11.61969,0 c -5.17382,0 -4.87369,5.0738 -4.87369,5.0738 l 0,35.37356 c 0,0 -0.0147,6.24575 6.04567,6.24575 l 87.755037,0 c 5.65978,0 5.78841,-1.4864 5.78841,-5.45967 l 0,-36.55983 c 0,-4.08762 -2.27249,-4.67361 -5.97421,-4.67361 l -15.66442,0 c -4.68789,0 -6.00278,-3.02997 -5.15953,-5.87414 0.34301,-1.12913 5.4168,-15.56439 6.97466,-19.65199 1.55787,-4.08762 2.34395,-4.28772 6.83175,-4.28772 l 68.57471,-0.12879 c 7.20334,0 7.60353,2.14385 8.57541,4.68788 0.97188,2.52975 4.73077,13.03464 5.63119,15.59296 2.6155,7.44633 0.20009,9.66163 -2.92994,9.66163 l -15.39286,0 c -2.34395,0 -5.65977,1.21486 -5.65977,5.45968 l 0,36.93143 c 0,2.92993 1.38636,4.302 6.24576,4.302 l 99.017423,0 c 3.07285,0 4.35916,-3.13002 4.35916,-5.03091 m 477.9363,-226.94812 c -0.3717,-135.44863 -20.3095,-238.324987 -57.6697,-315.203547 -31.2716,-64.372773 -73.9915,-101.304203 -117.15437,-101.304203 -49.25145,0.15724 -64.24413,40.44735 -65.28747,61.742963 -0.829,18.48001 9.59017,39.07529 19.66628,58.98454 7.78932,15.39287 15.13559,29.9424802 14.70683,39.2753902 -0.10063,2.71555 -2.08668,10.1475698 -7.46062,10.1618598 -5.05949,0.0148 -18.16557,-21.22415 -26.84104,-35.27352 -20.18079,-32.67233 -45.29246,-73.34836 -76.92143,-73.34836 -10.23333,0.0148 -46.65024,5.6026 -85.65408,77.10725 -32.65802,59.88496 -52.02416,144.309877 -65.20171,277.543187 0.21439,2.08669 1.57216,6.01708 5.231,6.01708 l 39.66127,0 c 4.70219,0 6.44587,-3.3587 6.67454,-5.20241 9.06135,-76.79281 14.04939,-124.858 24.52567,-166.806047 24.95445,-100.0893498 60.69963,-127.70217 70.46131,-127.73076 12.09133,0 23.9111,19.6234 36.44549,40.3616002 1.78656,2.97281 3.58739,5.95991 5.4311,8.9613098 16.26469,26.48372 36.21682,54.72542 67.30269,54.72542 31.80049,-0.0711 55.52584,-32.25785 56.94074,-61.1140998 1.3863,-31.2716802 -12.2057,-54.5396202 -22.13886,-71.5332302 -5.68836,-9.70451 -10.57634,-18.10841 -10.31908,-23.99686 0.40021,-9.31862 6.87463,-11.290963 12.23426,-11.290963 18.25128,0 48.90838,18.980253 75.22068,72.505113 41.1476,83.68172 49.8803,197.148707 49.966,285.604087 0.2574,1.90088 2.0153,5.51684 6.7174,5.51684 l 37.7318,0 c 4.0877,0 5.5312,-3.64455 5.7313,-5.70264 m 98.0598,50.68069 -87.3405,0 c -4.9738,0 -5.4597,1.92947 -5.4597,6.61736 l 0,34.50174 c 0,3.77318 1.1577,5.45967 5.6454,5.45967 l 6.6317,0 c 2.9156,0 6.4316,0.20004 4.6736,4.8737 -1.758,4.67359 -23.7968,74.66325 -24.9544,78.36498 -1.172,3.71601 -9.8761,3.31582 -11.4196,-0.57168 -1.5722,-3.90181 -19.6949,-74.66326 -20.6811,-78.17917 -0.9719,-3.51591 -0.6146,-3.71601 2.7442,-3.71601 3.3301,0 9.1614,0.78607 9.1614,-4.28771 l 0,-37.41737 c 0,-4.28772 -0.486,-5.64548 -5.4597,-5.64548 l -78.2364,0 c -6.4887,0 -5.8455,3.50163 -5.8455,7.38914 l 0,34.31594 c 0,4.38775 1.5578,5.64548 5.4596,5.64548 l 7.7894,0 c 2.9728,0 5.4597,-0.57167 7.2176,4.68788 1.758,5.27388 36.2597,105.09168 40.1615,117.55461 3.9018,12.47722 16.3076,11.30525 23.8825,11.30525 6.6603,0 10.019,-0.0857 8.847,3.95898 -1.1719,4.04473 -6.4172,23.33941 -13.0489,28.4132 -6.6459,5.05949 -17.5653,5.84557 -24.9687,2.72983 -7.4035,-3.11573 -15.7216,-10.73355 -17.2795,-11.99128 -1.5579,-1.24343 -3.7017,-1.05763 -5.6598,1.4864 -1.9437,2.52975 -16.3218,20.63813 -20.4666,26.51233 -4.1448,5.8599 -3.1158,6.2315 0.586,9.7474 3.7017,3.5159 23.4395,22.9821 61.4714,22.9821 40.5331,0 55.3829,-33.3298 62.3861,-51.76692 6.989,-18.43714 56.0261,-153.32837 57.784,-159.57412 1.7437,-6.23146 3.7017,-6.43155 7.0033,-6.43155 l 10.1475,0 c 3.9304,0 4.8737,-1.74367 4.8737,-6.04567 l 0,-35.27352 c 0,-4.28772 -1.2578,-5.64548 -5.6454,-5.64548 m 24.497,-21.4957 c 0,0 33.5156,-78.29353 -16.379,-78.29353 l -43.1343,0 c -8.2324,0 -7.775,8.10377 -7.775,8.10377 0,0 -0.058,33.37265 -0.058,37.78898 0,4.03044 -1.1578,8.90414 8.3467,8.90414 l 33.001,0 c 23.368,0 25.9978,23.49664 25.9978,23.49664 m 142.7234,84.39633 0,-55.71158 c 0,-5.0452 -2.787,-5.9885 -7.0318,-5.9885 l -26.4551,0 c -2.9443,0 -3.373,1.75797 -3.373,5.25958 l 0,8.77552 c 0,2.78701 -1.8152,2.27247 -5.1024,-1.01482 -3.9161,-3.90181 -14.5925,-16.2504 -44.3349,-16.2504 -31.972,0 -43.3487,10.66209 -52.2528,20.63816 -8.8899,9.96177 -21.6386,33.72994 -9.9475,57.89831 11.7054,24.16837 46.9647,29.14212 59.4705,31.77191 14.8069,3.13002 36.2597,10.91935 29.8281,22.81059 -6.4315,11.89124 -26.7124,8.604 -38.4035,4.8737 -11.7055,-3.71601 -17.8083,-14.29236 -18.5515,-17.00791 -0.9147,-3.25865 -4.3592,-6.08854 -8.847,-6.08854 l -29.9996,0 c -5.3454,0 -6.5745,2.82989 -6.5745,6.63165 l 0,54.82546 c 0,3.65884 0.7289,6.28864 4.8308,6.28864 l 30.2569,0 c 4.0019,0 4.6879,-1.75796 4.6879,-4.53067 0,-2.77272 -0.1572,-6.0028 -0.1572,-8.91845 0,-2.92993 1.6865,-4.03043 4.3877,-1.31494 2.7156,2.70125 18.0656,11.69115 35.1592,14.37811 17.1223,2.68696 39.647,3.05856 54.4539,-5.17383 14.8355,-8.23239 26.6552,-18.03694 29.185,-37.91761 2.787,-21.76725 -5.0595,-40.97617 -30.8,-49.90889 -25.7406,-8.91843 -50.4092,-14.04939 -59.199,-19.06601 -10.0046,-5.68836 -11.8197,-21.76725 2.3011,-25.68336 12.663,-3.50161 23.5395,0.34306 31.2002,4.75937 6.403,3.70171 9.6616,12.01985 10.2476,15.52148 0.5861,3.51592 1.0291,7.30339 6.2887,7.30339 l 31.5575,0 c 5.1452,0 7.1747,-2.02952 7.1747,-7.16046"
       style="fill:#d91920;fill-opacity:1;fill-rule:nonzero;stroke:none"
       id="path3203"
       inkscape:connector-curvature="0"
       sodipodi:nodetypes="cccsccccccccccscccsccccccccccccccscccssscsssssssscccsscccsssssscssccsssccssssssssssssssccscccssssccccsccccsssccccssssscccsccsssssscsccccssssssccccccccccccsscccccccccsccssccsssssscccsssssssssccsscscccssccssssccsscsssccssssscscccsccsssssssscccccccccssc" />
  </g>
</svg>
