<?xml version="1.0" encoding="UTF-8" standalone="no"?>
<svg
   xmlns:dc="http://purl.org/dc/elements/1.1/"
   xmlns:cc="http://creativecommons.org/ns#"
   xmlns:rdf="http://www.w3.org/1999/02/22-rdf-syntax-ns#"
   xmlns:svg="http://www.w3.org/2000/svg"
   xmlns="http://www.w3.org/2000/svg"
   xmlns:sodipodi="http://sodipodi.sourceforge.net/DTD/sodipodi-0.dtd"
   xmlns:inkscape="http://www.inkscape.org/namespaces/inkscape"
   viewBox="0 0 999.99995 462.61905"
   version="1.1"
   id="svg54"
   sodipodi:docname="Buffalo_Wild_Wings_2018.svg"
   width="1000"
   height="462.61905"
   inkscape:version="0.48.5 r10040">
  <metadata
     id="metadata58">
    <rdf:RDF>
      <cc:Work
         rdf:about="">
        <dc:format>image/svg+xml</dc:format>
        <dc:type
           rdf:resource="http://purl.org/dc/dcmitype/StillImage" />
        <dc:title>Asset 2</dc:title>
      </cc:Work>
    </rdf:RDF>
  </metadata>
  <sodipodi:namedview
     pagecolor="#ffffff"
     bordercolor="#666666"
     borderopacity="1"
     objecttolerance="10"
     gridtolerance="10"
     guidetolerance="10"
     inkscape:pageopacity="0"
     inkscape:pageshadow="2"
     inkscape:window-width="1920"
     inkscape:window-height="1028"
     id="namedview56"
     showgrid="false"
     inkscape:zoom="0.44393461"
     inkscape:cx="183.6661"
     inkscape:cy="170.44346"
     inkscape:window-x="-8"
     inkscape:window-y="-8"
     inkscape:window-maximized="1"
     inkscape:current-layer="svg54"
     fit-margin-top="0"
     fit-margin-left="0"
     fit-margin-right="0"
     fit-margin-bottom="0" />
  <defs
     id="defs4">
    <style
       id="style2">.cls-1{fill:#433031;}.cls-2{fill:#ffc600;}.cls-3{fill:#fff;}</style>
  </defs>
  <title
     id="title6">Asset 2</title>
  <g
     id="Layer_2"
     data-name="Layer 2"
     transform="matrix(3.3767813,0,0,3.3767813,-7.3242188e-6,0)">
    <g
       id="Layer_1-2"
       data-name="Layer 1">
      <path
         class="cls-1"
         d="M 68.5,0 A 68.5,68.5 0 1 0 137,68.5 68.58,68.58 0 0 0 68.5,0 z"
         id="path8"
         inkscape:connector-curvature="0"
         style="fill:#433031" />
      <circle
         class="cls-2"
         cx="68.5"
         cy="68.5"
         r="61.73"
         id="circle10"
         style="fill:#ffc600"
         sodipodi:cx="68.5"
         sodipodi:cy="68.5"
         sodipodi:rx="61.73"
         sodipodi:ry="61.73"
         d="m 130.23,68.5 c 0,34.09254 -27.63746,61.73 -61.73,61.73 C 34.407463,130.23 6.7700005,102.59254 6.7700005,68.5 6.7700005,34.407463 34.407463,6.7700005 68.5,6.7700005 c 34.09254,0 61.73,27.6374625 61.73,61.7299995 z" />
      <path
         class="cls-1"
         d="m 107.68,91.61 a 1.39,1.39 0 0 0 -0.74,-1.71 c -2.76,-0.81 -4.72,-4.3 -3.93,-8.9 0.79,-4.6 2.33,-12.1 -0.72,-15.89 0,0 -12.12,-6 -23.42,-11.49 a 28.75,28.75 0 0 1 -7.49,-0.73 30.27,30.27 0 0 1 1.94,7.41 C 68.72,60.52 59.05,57.16 55.54,52.86 57.16,49 57.34,46 56.82,43.52 49.12,42 39.25,45.47 37.35,53.9 33.03,50.74 23.06,50.5 19.05,57.82 15.8,63.75 18,74.49 18.58,77.33 c 0.56,2.59 1.17,4.57 2.13,5.65 0.96,1.08 2.9,1.53 4.77,1.72 1.17,5.57 7.11,5.43 5.46,10.41 2.75,-1 3.67,-4.94 2.51,-7.49 a 2.93,2.93 0 0 1 2.33,3.75 c 3.32,-0.69 2.31,-5.62 4.2,-6.35 1,7.38 8.34,9.83 6.25,15 1.59,0 3.55,-1.08 3.6,-2.84 0,0 2.87,4.6 2,6.95 l -3.44,5.08 h 9.34 l 1.05,-4.34 c 0,0 -2.18,-6.07 -2.05,-9.58 a 2.72,2.72 0 0 1 2.68,2.61 c 3.31,-2.5 -2,-7.1 -0.71,-10.93 0.68,3.39 3.86,4.11 4.19,6.86 8.18,-1.82 17,-8.55 22.78,-8.55 a 16.42,16.42 0 0 0 14.08,8.82 c 1.73,3 2.82,8.49 2.29,9.55 l -3.29,5.56 h 9 l 1.29,-4 c -1.51,-3.55 -2.51,-9.29 -1.36,-13.6 z"
         id="path12"
         inkscape:connector-curvature="0"
         style="fill:#433031" />
      <path
         class="cls-3"
         d="M 69.74,18 C 61.2,22.39 60.8,29.13 60.8,29.13 a 29.06,29.06 0 0 1 8.72,-1.65 25.86,25.86 0 0 1 -5.87,6.21 c 0,0 5.79,0 9.8,1.6 -2.53,2.3 -7.13,2.93 -7.13,2.93 0,0 1.59,1.39 3,5.52 a 15.33,15.33 0 0 1 -6.91,-1.46 24.94,24.94 0 0 1 -1.95,10.64 12.19,12.19 0 0 0 3.9,-7.63 c 3,1.4 8.14,0.52 8.14,0.52 0,0 -0.72,-3.81 -2.28,-5.81 4.46,-0.69 9.74,-5.39 9.74,-5.39 a 23,23 0 0 0 -10,-2.95 c 2.27,-1.82 4.67,-6.71 4.67,-6.71 0,0 -5.9,-0.65 -9.53,0.81 6.31,-8.44 21.57,-5 24.94,-2.89 -3.2,0.3 -8.4,2.65 -9.82,4.3 12.12,-1.05 23.89,9.71 27.62,17.36 -6.38,-2.39 -18.51,2.83 -28.42,1.7 a 17.42,17.42 0 0 1 6.75,6.69 c -4.1,0.91 -11,1.06 -14.81,0 a 30.27,30.27 0 0 1 1.94,7.41 C 68.7,60.55 59.03,57.19 55.52,52.89 60.71,40.5 51.16,37.03 50.82,30.67 50.6,26.34 56.5,19.69 69.74,18 z"
         id="path14"
         inkscape:connector-curvature="0"
         style="fill:#ffffff" />
      <path
         class="cls-3"
         d="m 32.15,54.94 c 3.18,4.63 -0.2,6.9 -3.06,7.94 a 2.13,2.13 0 0 0 -1.43,2 2.21,2.21 0 0 0 2.2,2.2 4.14,4.14 0 0 0 1.14,-0.19 c 8.4,-2.73 5.58,-11.58 1.15,-11.95 z"
         id="path16"
         inkscape:connector-curvature="0"
         style="fill:#ffffff" />
      <path
         class="cls-3"
         d="M 21.58,70.18 A 3,3 0 0 1 26,68.89 c -0.53,1.47 -2.74,2.2 -4.42,1.29 z"
         id="path18"
         inkscape:connector-curvature="0"
         style="fill:#ffffff" />
      <path
         class="cls-1"
         d="m 191.11,25 c 0,5.94 -0.39,11 -9.7,11 -9.31,0 -9.7,-5.05 -9.7,-11 V 11 h 6.44 v 12.32 c 0,6 -0.1,7 3.26,7 3.36,0 3.26,-1 3.26,-7 V 11 h 6.44 z"
         id="path20"
         inkscape:connector-curvature="0"
         style="fill:#433031" />
      <path
         class="cls-1"
         d="m 295.06,21.58 v 3.47 C 295.06,31 294.64,36 285,36 275.36,36 274.91,31 274.91,25.09 v -3.51 c 0,-5.94 0.43,-10.92 10.09,-10.92 9.66,0 10.06,4.98 10.06,10.92 z m -13.74,0.15 v 3.19 c 0,4.64 0.17,5.41 3.65,5.41 3.48,0 3.65,-0.76 3.65,-5.41 v -3.19 c 0,-4.69 -0.16,-5.43 -3.65,-5.43 -3.49,0 -3.65,0.7 -3.65,5.43 z"
         id="path22"
         inkscape:connector-curvature="0"
         style="fill:#433031" />
      <path
         class="cls-1"
         d="M 211.35,86.22 V 41.61 H 223 v 44.61 z"
         id="path24"
         inkscape:connector-curvature="0"
         style="fill:#433031" />
      <path
         class="cls-1"
         d="M 197.75,125.83 V 92.35 h 8.71 v 33.48 z"
         id="path26"
         inkscape:connector-curvature="0"
         style="fill:#433031" />
      <path
         class="cls-1"
         d="M 267.13,107.21 H 259 c -6.38,0 -6.73,6.6 -6.73,6.6 h 6.35 v 1.61 c -0.17,2.56 -1.58,3.17 -4.54,3.17 -4.72,0 -4.94,-1 -4.94,-7.33 V 107 c 0,-6.35 0.22,-7.35 4.94,-7.35 3.29,0 4.09,0.64 4.29,3.91 l 8.4,-3.09 c -0.85,-5 -3.65,-8.46 -12.69,-8.46 -13.09,0 -13.66,6.74 -13.66,14.78 v 4.7 c 0,8 0.57,14.78 13.66,14.78 8,0 11.25,-2.85 12.45,-6.83 0.88,-3.19 -0.35,-8.06 0.6,-12.23 z"
         id="path28"
         inkscape:connector-curvature="0"
         style="fill:#433031" />
      <path
         class="cls-1"
         d="m 227.94,92.35 v 15.91 l -7.6,-15.91 h -10.62 a 12.28,12.28 0 0 1 1.35,6 v 27.52 h 8.71 v -15.9 l 6.74,14.03 a 2.82,2.82 0 0 0 2.95,1.79 h 7.18 V 92.35 z"
         id="path30"
         inkscape:connector-curvature="0"
         style="fill:#433031" />
      <path
         class="cls-1"
         d="m 282.44,104.78 c -3.36,-0.5 -4.11,-1 -4.11,-2.45 0,-1.67 1,-2.74 3.48,-2.74 2.8,0 3.43,0.42 4.42,2.94 l 8.24,-3 c -0.92,-5.35 -4.32,-7.63 -12.39,-7.63 -9.74,0 -12.46,4.06 -12.46,10.34 0,6.69 3,9.48 13.4,10.91 2.47,0.33 3.56,0.91 3.56,2.72 0,1.81 -0.76,2.75 -3.6,2.75 -3.05,0 -3.56,-0.72 -4.36,-3.34 l -8.87,3.25 c 1.1,5.52 5,7.81 12.58,7.81 9.42,0 12.94,-4.36 12.94,-10.23 0,-6.96 -3.8,-9.92 -12.83,-11.33 z"
         id="path32"
         inkscape:connector-curvature="0"
         style="fill:#433031" />
      <path
         class="cls-1"
         d="m 296.14,61.1 c 0,-10.44 -0.74,-19.49 -18.58,-19.49 h -17 c 0,0 1.12,0.91 1.12,6.9 v 37.71 h 15.88 c 17.84,0 18.58,-9 18.58,-19.41 z m -11.61,6 c 0,7.85 -0.36,9 -7,9 H 273.3 V 55.3 a 4,4 0 0 0 -1.53,-3.52 h 5.79 c 6.61,0 7,1.13 7,9 z"
         id="path34"
         inkscape:connector-curvature="0"
         style="fill:#433031" />
      <path
         class="cls-1"
         d="m 247.88,76.05 h -7.44 V 41.61 h -11.62 v 44.61 h 29 V 73.93 c 0,0 -2.48,2.12 -9.94,2.12 z"
         id="path36"
         inkscape:connector-curvature="0"
         style="fill:#433031" />
      <path
         class="cls-1"
         d="m 267.38,30 h -4.13 V 11 h -6.44 v 24.67 h 16.06 v -6.81 c 0,0 -1.36,1.14 -5.49,1.14 z"
         id="path38"
         inkscape:connector-curvature="0"
         style="fill:#433031" />
      <path
         class="cls-1"
         d="m 164.51,22.5 c 2.18,-0.47 3.31,-1.81 3.31,-5.66 0,-5.32 -2.95,-5.91 -8.5,-5.91 h -10.6 c 0,0 1.07,1.29 1.07,5.06 v 19.68 h 9.13 c 6.28,0 9.63,-0.55 9.63,-6.69 0,-4.54 -1.38,-5.98 -4.04,-6.48 z m -9,-6.16 h 2.41 c 2.9,0 3.58,0 3.58,2 0,1.61 -0.48,2 -2.25,2 h -3 V 18 a 1.88,1.88 0 0 0 -0.73,-1.66 z m 2.08,13.94 h -1.37 V 25 h 3 c 2.28,0 2.88,0.32 2.88,2.63 0.01,2.78 -0.84,2.65 -4.5,2.65 z"
         id="path40"
         inkscape:connector-curvature="0"
         style="fill:#433031" />
      <path
         class="cls-1"
         d="m 246.29,11 h -9.92 a 6.51,6.51 0 0 1 0.37,3.57 v 0 l -6.54,21.11 h 6.62 l 1.66,-5.86 h 7.17 l 1.67,5.86 H 254 z m -6.4,13.53 2.18,-7.57 2.17,7.57 z"
         id="path42"
         inkscape:connector-curvature="0"
         style="fill:#433031" />
      <path
         class="cls-1"
         d="M 195.55,41.61 189.89,72.3 185,44.7 a 3.48,3.48 0 0 0 -3.69,-3.09 h -9.27 c 1.6,3 -0.59,6.34 -5.43,30.69 L 161,41.61 h -13.87 a 12.52,12.52 0 0 1 3.2,5.92 L 158,86.22 h 12.55 c 2.37,0 3.7,-2.2 4.06,-4 l 3.65,-18.88 4.44,22.91 h 12.62 a 4.25,4.25 0 0 0 3.94,-3.68 l 8.11,-40.93 z"
         id="path44"
         inkscape:connector-curvature="0"
         style="fill:#433031" />
      <path
         class="cls-1"
         d="m 185.79,92.35 -4.25,23 -3.66,-20.7 a 2.61,2.61 0 0 0 -2.77,-2.32 h -7 c 1.2,2.24 -0.44,4.76 -4.08,23 l -4.24,-23 h -10.32 a 9.37,9.37 0 0 1 2.4,4.44 l 5.74,29 H 167 c 1.78,0 2.78,-1.65 3,-3 l 2.74,-14.17 3.33,17.19 h 9.47 a 3.19,3.19 0 0 0 2.95,-2.77 l 6.09,-30.7 z"
         id="path46"
         inkscape:connector-curvature="0"
         style="fill:#433031" />
      <path
         class="cls-1"
         d="m 215.26,11 v 24.68 h 6.44 v -9.32 h 3.38 c 2.41,0 3.36,-1.37 4.44,-5.63 h -7.82 v -4.15 h 7.15 a 4.8,4.8 0 0 1 3.05,0.85 V 11 z"
         id="path48"
         inkscape:connector-curvature="0"
         style="fill:#433031" />
      <path
         class="cls-1"
         d="m 195.21,11 v 24.68 h 6.43 V 26.36 H 205 c 2.41,0 3.36,-1.37 4.44,-5.63 h -7.83 v -4.15 h 7.15 a 4.77,4.77 0 0 1 3.05,0.85 V 11 z"
         id="path50"
         inkscape:connector-curvature="0"
         style="fill:#433031" />
    </g>
  </g>
</svg>
