<?xml version="1.0" encoding="UTF-8" standalone="no"?>
<svg
   xmlns:dc="http://purl.org/dc/elements/1.1/"
   xmlns:cc="http://creativecommons.org/ns#"
   xmlns:rdf="http://www.w3.org/1999/02/22-rdf-syntax-ns#"
   xmlns:svg="http://www.w3.org/2000/svg"
   xmlns="http://www.w3.org/2000/svg"
   xmlns:sodipodi="http://sodipodi.sourceforge.net/DTD/sodipodi-0.dtd"
   xmlns:inkscape="http://www.inkscape.org/namespaces/inkscape"
   version="1.1"
   id="svg2200"
   x="0px"
   y="0px"
   width="1000"
   height="1042.0566"
   viewBox="-101.982 -101.457 1000 1042.0566"
   enable-background="new -101.982 -101.457 300 300"
   xml:space="preserve"
   sodipodi:docname="image.svg"
   inkscape:version="0.92.3 (2405546, 2018-03-11)"><metadata
   id="metadata14289"><rdf:RDF><cc:Work
       rdf:about=""><dc:format>image/svg+xml</dc:format><dc:type
         rdf:resource="http://purl.org/dc/dcmitype/StillImage" /><dc:title></dc:title></cc:Work></rdf:RDF></metadata><defs
   id="defs14287" /><sodipodi:namedview
   pagecolor="#ffffff"
   bordercolor="#666666"
   borderopacity="1"
   objecttolerance="10"
   gridtolerance="10"
   guidetolerance="10"
   inkscape:pageopacity="0"
   inkscape:pageshadow="2"
   inkscape:window-width="1360"
   inkscape:window-height="706"
   id="namedview14285"
   showgrid="false"
   inkscape:zoom="0.78666666"
   inkscape:cx="640.20045"
   inkscape:cy="790.35305"
   inkscape:window-x="-8"
   inkscape:window-y="-8"
   inkscape:window-maximized="1"
   inkscape:current-layer="svg2200"
   fit-margin-top="0"
   fit-margin-left="0"
   fit-margin-right="0"
   fit-margin-bottom="0" />
<path
   id="path11"
   d="m 673.92282,45.338763 c 2.41969,-5.95915 -2.508,-11.8088 -2.508,-11.8088 0,0 -38.70799,-65.85092 -175.6625,-80.4609 -73.329,-7.81366 -173.15803,7.0224 -243.13126,44.7554502 C 125.83985,66.137513 106.85676,178.67257 106.85676,178.67257 c -0.71354,2.75526 -1.92869,11.1447 0.92196,14.72302 2.90362,3.6419 7.12837,3.57479 12.37044,1.80506 44.74486,-15.11513 178.10692,-59.34072 262.26625,-81.67606 119.7694,-31.752697 218.15722,-51.074897 281.30939,-61.834577 4.48261,-0.75947 8.50601,-2.22894 10.19802,-6.35125"
   inkscape:connector-curvature="0"
   style="fill:#ffbb36;stroke-width:3.5323956" />
<path
   id="path13"
   d="M 810.68305,575.7103 C 738.99661,736.70276 601.46632,848.74328 421.22231,851.29721 289.96908,853.15878 174.1383,808.19138 90.484107,729.75807 l -50.594503,21.64652 0.08478,-78.3344 c -55.123033,-74.3534 -87.084149,-168.40343 -87.084149,-275.24427 0,-273.64762 209.594695,-489.356887 501.907495,-489.356887 47.71206,0 90.83555,7.4251 123.34772,14.79014 -50.0929,-16.03001 -99.86789,-24.716173 -155.27351,-24.716173 -313.71912,0 -524.84334,254.38193 -524.85394,516.71883 0,285.8803 224.26826,525.33787 518.63692,525.33787 281.16103,0 432.85269,-198.22744 481.36308,-317.44226 L 810.68305,575.7103"
   inkscape:connector-curvature="0"
   style="fill:#0066b3;stroke-width:3.5323956" />
<path
   id="path15"
   d="m 737.91217,519.14958 c 41.25485,-4.68042 69.7966,-21.26149 85.46278,-36.64154 14.27794,-14.02714 17.60899,-33.34228 17.63019,-47.69087 0.57578,-21.08134 0,-87.60694 0,-87.60694 l -109.17576,23.62112 c 0,0 -0.0106,8.23049 -0.0424,25.5039 0.20134,16.87072 8.33292,26.05495 26.01609,22.80161 5.54233,-0.90782 14.07306,-3.62777 14.07306,-3.62777 l 0.14836,20.8482 c -0.0954,-0.59697 1.61431,11.62512 -25.89952,17.06501 -36.00571,5.65183 -52.36777,-16.50336 -52.79519,-55.6529 0.71002,-41.95779 24.43358,-66.1547 53.21201,-72.78148 32.37794,-7.42509 50.70401,0.28966 61.47428,1.93222 36.16114,5.41517 46.41568,-48.80004 13.52201,-61.51666 -24.31701,-9.79534 -55.86483,-11.56507 -85.93965,-5.56 -40.15627,8.00795 -119.12651,41.61869 -119.34552,150.82976 0.21548,86.78037 64.19423,115.06073 121.65924,108.47634"
   inkscape:connector-curvature="0"
   style="fill:#ec1d23;stroke-width:3.5323956" />
<path
   id="path17"
   d="m 383.01945,612.16109 c 0,0 33.49771,-11.49088 36.39427,-12.50821 26.92392,-9.2902 36.73338,-25.29902 36.61328,-53.00713 -0.33911,-30.08542 -0.38856,-88.75144 -0.38856,-88.75144 l 77.88932,89.74757 c 12.65304,13.06634 28.50996,14.18257 43.02811,9.9225 15.00915,-4.3943 27.50677,-18.11765 27.88473,-37.47165 0.12364,-64.80886 -0.0318,-222.98247 -0.0318,-222.98247 0,0 -20.12759,4.27066 -36.83582,9.00761 -19.2233,5.44695 -34.01344,17.70436 -34.01344,50.06111 0,11.45556 -0.0424,77.19344 -0.0424,77.19344 0,0 -43.83703,-54.97821 -72.50242,-83.65419 -15.32706,-15.30941 -40.68613,-6.1711 -40.68613,-6.1711 l -37.37274,11.31073 0.0636,257.30323"
   inkscape:connector-curvature="0"
   style="fill:#ec1d23;stroke-width:3.5323956" />
<path
   id="path19"
   d="m 359.43718,360.65452 c 0,0 -23.45864,6.88111 -42.54771,13.77281 -24.78682,8.96169 -39.07536,23.30322 -39.07536,60.82432 0,34.46205 -0.0601,213.82651 -0.0601,213.82651 0,0 21.71364,-7.4251 41.95779,-15.06214 28.78196,-10.85152 39.64055,-25.65579 39.64055,-55.87896 0,-25.97371 0.0848,-217.48254 0.0848,-217.48254"
   inkscape:connector-curvature="0"
   style="fill:#ec1d23;stroke-width:3.5323956" />
<path
   id="path21"
   d="m 243.02708,411.53515 c -21.52995,-9.7812 -40.01145,1.12683 -47.86043,13.1829 l -66.17943,112.55979 -0.11657,-90.74372 -78.01649,32.31789 -0.243735,256.61441 54.957015,-23.03828 c 0,0 10.78793,-3.05906 17.29814,-13.28887 5.98388,-9.42443 5.76133,-25.2319 5.76133,-25.2319 l 0.0671,-81.37227 61.42129,65.17623 c 13.48669,14.00595 38.26645,21.19791 60.13197,3.53593 19.77082,-15.96643 16.70824,-43.18707 5.6801,-55.37737 l -55.95315,-56.32404 c 0,0 49.2416,-77.60674 57.29192,-90.57416 10.6855,-17.22396 5.3092,-38.5561 -14.23908,-47.43654"
   inkscape:connector-curvature="0"
   style="fill:#ec1d23;stroke-width:3.5323956" />
<path
   id="path23"
   d="m 212.47186,713.16994 c -2.90363,6.69036 3.71961,13.32773 3.71961,13.32773 28.39693,35.63127 154.47872,80.81061 291.33079,47.73326 208.99419,-50.54505 253.15267,-198.40053 258.15454,-219.27699 1.02793,-4.25653 1.84038,-11.10232 -2.10884,-15.21049 -3.31339,-3.42996 -8.02207,-3.46528 -14.557,-1.95342 -145.15674,34.12294 -386.70548,107.85464 -525.96664,167.52386 -5.99448,2.56805 -8.70736,3.51121 -10.57246,7.85605"
   inkscape:connector-curvature="0"
   style="fill:#ffbb36;stroke-width:3.5323956" />
<path
   id="path25"
   d="M 88.523627,376.86469 C 88.332878,362.72097 77.33653,355.00269 58.335774,364.54016 l -0.03886,45.46899 c 0,0 6.142836,-2.71994 10.650173,-4.81818 C 80.056471,400.0372 88.78502,390.7682 88.523623,376.86469 M 57.96134,335.76526 c 3.384035,-1.32111 5.870842,-2.43382 8.710888,-3.81852 10.293401,-5.01247 17.619589,-14.30973 17.704367,-26.34814 0.105972,-13.70922 -11.183565,-17.25222 -26.39406,-9.3891 z m 80.43618,34.60335 c 0.61817,35.88561 -25.2319,54.97821 -58.906228,68.93117 L 10.51067,468.60453 10.351712,281.72314 c 0,0 43.459064,-17.71849 57.638099,-22.87579 40.304639,-14.66651 64.003479,3.01313 64.003479,29.93705 0,17.96577 -7.69003,33.23631 -24.3806,46.65588 16.43624,2.74114 30.47045,16.24196 30.78483,34.92833 z"
   inkscape:connector-curvature="0"
   style="fill:#ec1d23;stroke-width:3.5323956" />
<path
   id="path27"
   d="m 269.34343,212.63302 c 0,-15.74036 -10.8268,-19.92625 -23.92139,-16.15718 -10.58659,3.0308 -22.91818,7.84545 -22.91818,7.84545 l -0.0848,116.18402 c -0.12716,11.57213 -1.91809,26.05849 -16.17484,29.6474 -10.94336,2.7588 -16.11832,-4.54266 -16.12892,-16.09359 l -0.15542,-95.09563 c 0,-15.8216 -11.00695,-20.55854 -24.05915,-16.22782 -14.67357,4.89943 -23.49043,8.42829 -23.49043,8.42829 0,0 0.16956,82.27303 -0.0318,115.17376 -0.18722,38.5667 26.40466,57.82179 66.93536,45.8505 35.75491,-10.57246 59.63037,-30.57995 60.08252,-81.94451 l -0.053,-97.61069"
   inkscape:connector-curvature="0"
   style="fill:#ec1d23;stroke-width:3.5323956" />
<path
   id="path29"
   d="m 652.70726,260.64887 c 10.30046,-2.22188 16.72589,-9.50568 16.72589,-22.0916 0,-11.33899 0.0424,-19.96157 0.0424,-19.96157 l -55.95315,12.22562 0.10244,-32.91839 c 0,0 27.42552,-5.81433 35.04136,-7.47455 9.56926,-2.09824 14.58173,-7.31559 14.58173,-18.25189 0,-10.20156 -0.0636,-19.02901 -0.0636,-19.02901 l -49.57717,10.51947 -0.0106,-26.10087 c 0,0 25.77236,-5.37984 39.66174,-8.2976 10.81973,-2.27486 14.39098,-9.68583 14.39098,-19.88385 0,-6.64091 0.10597,-19.784947 0.10597,-19.784947 -24.7303,4.36604 -71.73942,13.758677 -101.05477,20.473757 l -0.39916,170.36038 c 0,0 55.74473,-13.12992 86.40593,-19.78495"
   inkscape:connector-curvature="0"
   style="fill:#ec1d23;stroke-width:3.5323956" />
<path
   id="path31"
   d="m 329.37649,253.76776 c 0.0389,-0.0318 27.67985,-14.30973 27.37606,-36.95945 -0.27199,-19.36813 -18.11059,-15.12925 -27.36546,-11.73462 l -0.0106,48.69407 m 0.0707,26.28103 c 0,0 -0.0918,32.6252 -0.13777,45.79044 -0.11303,12.34219 -8.54133,21.25443 -19.20916,25.33081 0,0.39563 0,-0.3709 0,0 -8.9193,3.05906 -27.87414,9.58339 -27.87414,9.58339 l 0.0742,-175.42936 c 0,0 39.13895,-13.63505 62.15604,-18.9831 35.7655,-8.31879 61.20228,7.95496 60.74307,36.84642 -0.22254,27.50677 -15.56727,44.19734 -29.35067,55.62464 l 30.29029,29.08221 c 9.30786,9.0182 9.95782,25.32021 -0.5122,35.17206 -6.20642,5.83199 -22.80868,11.87592 -35.80789,-1.35291 z"
   inkscape:connector-curvature="0"
   style="fill:#ec1d23;stroke-width:3.5323956" />
<path
   id="path33"
   d="m 725.46401,159.41395 c 0.0565,0 27.30542,-10.37818 26.99456,-32.22605 -0.28259,-18.47796 -18.47796,-15.13278 -27.06521,-13.21469 l 0.0707,45.44074 m -45.72686,96.12708 0.0742,-168.212677 c 0,0 49.11443,-8.68263 61.79926,-10.3146 35.21092,-4.52146 58.83558,15.01975 58.35164,42.780847 -0.18722,24.41238 -15.52488,39.10362 -28.55942,47.91694 0,0 23.94964,26.98397 30.36801,34.12294 8.62257,9.62225 8.23754,26.07262 -4.51794,34.13001 -12.53647,7.9055 -24.95637,3.76907 -32.16599,-4.19295 l -39.53811,-46.36976 c 0,0 0.12717,28.52056 0.0954,40.97226 -0.11657,12.39517 -7.28733,21.43104 -20.14525,24.09093 z"
   inkscape:connector-curvature="0"
   style="fill:#ec1d23;stroke-width:3.5323956" />
<path
   id="path35"
   d="m 555.28732,184.93904 -69.67297,15.8216 c 0,0 -0.0848,7.36151 -0.0954,19.37872 0.0954,9.01114 6.41483,14.86079 15.50722,12.98862 5.73308,-1.19042 10.32166,-2.25367 10.32166,-2.25367 l 0.10597,19.35046 c 0.0742,7.6547 -11.41317,12.66717 -23.34207,12.39165 -16.7153,-0.43449 -25.9843,-13.42311 -26.22451,-38.13928 0.51927,-32.49804 15.80748,-51.57651 36.63095,-56.90336 10.39937,-2.67756 19.86266,-1.3741 27.21357,-0.42036 17.95164,2.9001 28.28743,-5.75427 28.6548,-20.59033 0.37443,-15.88872 -13.71983,-25.71584 -43.97126,-24.66672 -65.59659,2.26427 -99.13669,49.39349 -99.13669,105.63982 0,57.60278 37.63061,83.04663 83.56235,74.7455 25.95605,-5.23501 38.86695,-13.66331 47.81451,-21.50876 8.94403,-7.84545 12.63185,-19.58007 12.63185,-29.60148 v -66.23241"
   inkscape:connector-curvature="0"
   style="fill:#ec1d23;stroke-width:3.5323956" />
<path
   id="path37"
   d="M 280.78839,-3.4648168 C 203.95172,30.453253 152.07496,111.18968 149.22431,145.36561 c -1.1233,13.58559 16.88839,15.53547 18.58394,1.10917 C 184.02194,84.135063 233.64504,25.359533 280.78839,-3.4648168"
   inkscape:connector-curvature="0"
   style="fill:#ffffff;stroke-width:3.5323956" />
<path
   id="path39"
   d="m 535.40346,54.462943 c 41.44207,-10.16623 64.20129,-11.69929 64.61105,-30.21258 0.72061,-31.0002998 -87.72351,-66.94596 -168.70721,-60.43576 82.51322,5.51407 132.00915,37.2809102 132.28115,59.41843 0.15542,14.00242 -11.97836,26.35874 -28.18499,31.22991"
   inkscape:connector-curvature="0"
   style="fill:#ffffff;stroke-width:3.5323956" />
<path
   id="path41"
   d="m 561.08398,739.66291 c 62.18429,-24.45831 121.94183,-71.17777 155.00152,-141.15806 9.541,-20.22297 -18.04701,-30.55522 -25.83594,-6.80693 -19.35047,49.75379 -59.11818,108.17255 -129.16558,147.96499"
   inkscape:connector-curvature="0"
   style="fill:#ffffff;stroke-width:3.5323956" />

</svg>