<?xml version="1.0" encoding="UTF-8" standalone="no"?>
<svg
   width="1000"
   height="203.7037"
   viewBox="0 0 1000 203.7037"
   fill="none"
   version="1.1"
   id="svg1"
   xmlns="http://www.w3.org/2000/svg"
   xmlns:svg="http://www.w3.org/2000/svg">
  <defs
     id="defs1" />
  <path
     d="m 999.99074,169.65 c 0,16.75556 -21.15741,34.0537 -46.24074,34.0537 -26.03704,0 -44.62407,-14.39352 -44.62407,-48.25092 V 23.490278 C 909.13493,9.973056 918.12222,0 931.87037,0 c 13.74074,0 22.72222,9.973056 22.72222,23.490278 V 149.25093 c 0,6.57592 2.12037,9.66759 7.13889,9.66759 7.2963,0 11.31482,-7.51204 21.48148,-7.51204 C 993.58333,151.40648 1000,158.85 1000,169.65 Z M 222.04167,51.824259 c -3.65186,3.583612 -5.96204,6.005463 -9.075,6.005463 -2.84815,0 -4.89445,-1.594814 -6.87223,-5.877407 -2.86759,-6.192593 -8.08518,-12.690278 -17.9537,-12.690278 -12.34352,0 -19.1963,9.362593 -19.1963,22.062685 V 179.86852 c 0,13.51759 8.98612,23.49074 22.73056,23.49074 13.74444,0 22.73056,-9.97315 22.73056,-23.49074 V 99.277778 c 0,-9.018426 7.1074,-16.284074 18.64907,-16.284074 5.41389,0 8.96667,1.27 14.75278,1.27 12.89259,0 22.28981,-9.274074 22.28981,-22.663333 0,-13.38926 -9.39722,-22.663241 -22.28981,-22.663241 -11.97222,0 -20,7.245926 -25.75556,12.887129 z m -99.83148,62.102591 c 13.39166,0 21.08611,-10.07129 21.08611,-23.657683 0,-30.716482 -29.66204,-51.341852 -66.31297,-51.341852 C 36.60231,38.93713 0,65.075741 0,120.30648 c 0,58.3713 33.33269,83.38704 78.72583,83.38704 36.59269,0 64.71769,-19.73889 64.71769,-40.61019 0,-10.85926 -7.65556,-18.07592 -17.89537,-18.07592 -16.4463,0 -21.56574,15.98889 -46.82232,15.98889 -18.84444,0 -32.43203,-12.3463 -32.43203,-40.68982 0,-27.881295 13.87148,-40.335184 30.68953,-40.335184 15.07556,0 21.78148,7.265556 25.4426,17.277778 3.7,10.111116 8.9574,16.677776 19.78426,16.677776 z m 763.02962,6.73426 c 0,57.81019 -31.77685,83.04259 -66.80277,83.04259 -13.93982,0 -28.11482,-4.80463 -39.08889,-13.23148 -2.41759,-1.86111 -4.04259,-2.69815 -6.28426,-2.69815 -2.55556,0 -4.66945,1.33889 -6.64722,4.92315 -2.98611,5.39444 -7.34167,10.68148 -17.20926,10.68148 -11.86482,0 -18.45371,-9.05741 -18.45371,-20.60555 V 23.490278 C 730.7537,9.973056 739.74074,0 753.48519,0 c 13.74444,0 22.73055,9.973056 22.73055,23.490278 v 21.698426 c 0,4.696111 2.42778,6.675 5.7463,6.675 2.98611,0 5.47222,-1.526019 9.71111,-4.036482 8.83981,-5.237592 18.25741,-8.899907 30.52315,-8.899907 31.40463,0 63.05277,24.031759 63.05277,81.723615 z m -46.28425,0 c 0,-29.01361 -12.93149,-40.679999 -31.67778,-40.679999 -13.96019,0 -31.07222,8.240278 -31.07222,21.934629 v 25.73519 c 0,22.23981 11.4537,33.69907 31.07222,33.69907 18.73611,0 31.67778,-11.66574 31.67778,-40.67963 z m -498.5213,83.04259 c 16.51389,0 27.59537,-5.57222 39.81296,-13.47777 2.9463,-1.91019 4.65,-2.46112 6.25556,-2.46112 2.65278,0 4.72778,1.33889 6.70555,4.92223 2.98519,5.39537 8.08611,10.6824 17.95371,10.6824 12.34444,0 19.19629,-9.41203 19.19629,-21.42314 V 62.76213 c 0,-13.517222 -8.98611,-23.490278 -22.73055,-23.490278 -13.74445,0 -22.73056,9.973056 -22.73056,23.490278 v 75.83602 c 0,14.42315 -20.12685,21.90555 -29.78889,21.90555 -13.37222,0 -20.63611,-7.24629 -20.63611,-21.81666 V 62.76213 c 0,-13.517222 -8.97685,-23.490278 -22.72129,-23.490278 -13.74445,0 -22.73056,9.973056 -22.73056,23.490278 l 0.0389,83.2888 c 0,40.21759 23.21111,57.65277 51.36481,57.65277 z M 553.27315,38.93713 c -16.51389,0 -28.83889,6.655278 -41.05648,15.988333 -2.9463,2.254537 -4.65,2.904259 -6.25463,2.904259 -2.90741,0 -4.90463,-1.604722 -6.89167,-5.877407 -2.9963,-6.438704 -8.10556,-12.690278 -18.00278,-12.690278 -12.34444,0 -19.19722,9.362593 -19.19722,22.062685 l 0.0593,118.543798 c 0,13.51759 8.98611,23.49074 22.73056,23.49074 13.74444,0 22.73055,-9.97315 22.73055,-23.49074 v -76.85 c 0,-14.423057 20.12685,-21.905279 29.78889,-21.905279 13.37222,0 20.63611,7.246018 20.63611,21.816389 v 76.93889 c 0,13.51759 8.98704,23.49074 22.73056,23.49074 13.74444,0 22.73148,-9.97315 22.73148,-23.49074 v -76.85 c 0,-14.423057 20.12685,-21.905279 29.78889,-21.905279 13.37222,0 20.63518,7.246018 20.63518,21.816389 v 76.93889 c 0,13.51759 8.98704,23.49074 22.73148,23.49074 13.74445,0 22.73056,-9.97315 22.73056,-23.49074 L 699.125,89.688334 c 0,-30.283334 -21.71296,-50.761019 -52.97963,-50.761019 -17.64074,0 -30.99352,7.019444 -44.04259,16.864537 -3.21111,2.421852 -4.39537,3.061759 -6.51019,3.061759 -2.525,0 -4.20926,-1.407778 -6.35278,-3.898611 -9.09444,-10.612963 -23.1324,-16.027685 -35.96666,-16.027685 z"
     fill="#000000"
     id="path1"
     style="stroke-width:9.25926" />
</svg>
