<?xml version="1.0" encoding="utf-8"?>
<svg viewBox="0 0 542.8353 354.1041" width="542.8353" height="354.1041" xmlns="http://www.w3.org/2000/svg">
  <g id="layer2" transform="matrix(1, 0, 0, 0.9999999999999999, 171.3721422104486, 111.51888752020372)">
    <g id="g2929">
      <path d="m 100.05118,-111.51841 c -25.941258,-0.0541 -64.967163,4.49552 -103.1823312,27.760852 -54.5699318,33.222091 -88.5031888,71.42643 -113.4596988,98.828186 -13.66977,15.00914 -26.52564,28.308803 -42.74405,41.01265 l -12.03725,9.428752 12.03155,9.434447 c 12.46099,9.77119 22.97312,19.794615 32.92517,30.419183 l -18.87174,80.79794 8.67126,4.16904 c 50.567242,24.31214 109.094559,38.9539 160.359977,41.68756 l 11.268369,0.60087 c 23.089194,7.4382 46.968956,9.96412 65.024504,9.96412 42.22522,0 78.83982,-11.68859 111.76958,-32.78282 45.41488,-29.09198 79.87462,-66.40744 104.83542,-93.79201 13.68793,-15.01707 26.56272,-28.324482 42.78962,-41.052522 l 12.03155,-9.437295 C 354.74164,52.821185 339.49451,39.555783 326.44659,25.609955 l 19.02551,-81.227944 -8.66841,-4.171888 C 282.27718,-86.032115 218.51286,-101.48313 164.51468,-101.7622 c -22.86422,-7.23886 -46.68141,-9.71915 -64.4635,-9.75621 z" id="path3513" style="fill:#ffffff;stroke:none;stroke-width:2.84771"/>
      <path d="m 328.69912,87.769664 c 10.40082,-10.464322 24.78643,-21.739382 24.78643,-21.739382 0,0 -14.38545,-11.261033 -24.78928,-21.725143 -26.45687,-26.610171 -65.17396,-77.649295 -131.29202,-118.26662 -34.68448,-21.3072 -71.63648,-26.215979 -97.680561,-26.217399 -26.069741,-10e-4 -64.523766,4.91205 -99.1905271,26.217399 -66.0929799,40.619138 -103.3435419,91.655165 -129.7792119,118.26662 -10.39371,10.462825 -24.80636,21.725143 -24.80636,21.725143 0,0 14.40123,11.276523 24.79497,21.739382 26.43563,26.611416 65.184186,77.627706 131.2934498,118.249536 34.6729932,21.30534 71.5951232,26.22024 97.6791362,26.22024 26.055534,0 63.007344,-4.90793 97.689104,-26.22024 66.09797,-40.61791 104.84923,-91.64244 131.29487,-118.249536 z" id="path3515" style="fill:#ee3d42;fill-opacity:1;stroke:none;stroke-width:2.84771"/>
      <path id="path3517" style="fill:#ffffff;stroke:none;stroke-width:2.84771" d="m 368.19922,89.863281 c -39.34027,0 -73.62788,27.086749 -88.99805,60.843749 3.37893,-44.18416 -29.53771,-56.994139 -76.81836,-56.994139 h -74.57422 l -3.04687,13.621089 17.60742,1.54883 -29.36328,123.48242 -7.51563,1.31641 -3.02734,13.83984 h 87.1582 c 45.36068,0 69.32995,-25.1161 80.97852,-56.86718 0.35928,38.12552 20.95761,60.21954 76.26562,59.61132 4.2829,-0.0471 8.81925,-0.21644 13.05665,-0.88281 7.05946,17.14034 12.60948,24.48242 35.8496,24.48242 9.10127,0 18.13635,-2.28692 25.6543,-6.45312 l 4.0957,-17.71875 -0.21289,-2.41797 c -4.14341,1.75988 -8.52689,3.73438 -13.32812,3.73438 -12.38752,0 -12.3881,-4.47332 -18.13477,-12.60352 30.8435,-17.14319 49.89844,-52.02924 49.89844,-92.15625 0,-36.38798 -28.32997,-56.386719 -75.54492,-56.386719 z m -0.33203,15.599609 c 14.41223,0 20.38801,7.91114 21.29492,18.24609 1.02099,11.6351 -6.29604,61.07673 -21.22656,89.86133 -7.40403,-5.09454 -16.5916,-7.42443 -25.60743,-7.98828 l -3.54882,15.36914 c 7.79417,1.06505 11.11545,5.13016 14.07422,11.07617 -2.63698,1.75703 -5.3225,2.63672 -8.34961,2.63672 -14.40369,0 -20.4155,-7.91412 -21.31446,-18.24023 -1.45324,-16.69292 14.10477,-110.96094 44.67774,-110.96094 z m -172.14453,3.84766 h 12.30468 c 9.34617,0 18.23347,3.0753 19.93946,21.7539 1.24423,13.62293 -8.3694,100.85352 -45.75977,100.85352 -7.58629,0 -11.41089,-0.44179 -15.26953,-1.09961 z" transform="translate(-171.37215,-111.5283)"/>
      <path d="M 321.87887,0.88902575 C 264.94185,-38.278312 175.20213,-67.23049 102.28947,-65.599195 71.722214,-64.915306 42.780976,-60.04617 16.795666,-51.861865 53.380135,-74.99947 103.13227,-89.770278 158.07317,-90.99503 c 56.32464,-1.255599 122.36874,15.346283 175.73473,41.009802 z" id="path3521" style="fill:#f9ab53;fill-opacity:1;stroke:none;stroke-width:2.84771"/>
      <path d="m -122.44003,131.17723 c 56.937016,39.17019 146.671054,68.12281 219.592241,66.48823 30.567269,-0.68915 59.508499,-5.55303 85.490959,-13.73164 -36.58162,23.12906 -86.333879,37.89157 -141.274656,39.12462 -56.321913,1.25299 -122.363045,-15.33774 -175.737584,-41.01265 z" id="path3523" style="fill:#0079c2;fill-opacity:1;stroke:none;stroke-width:2.84771"/>
    </g>
  </g>
</svg>