<svg xmlns="http://www.w3.org/2000/svg" viewBox="0 0 352.85 68.356"><g stroke-miterlimit="10" data-paper-data="{&quot;isPaintingLayer&quot;:true}" style="mix-blend-mode:normal"><path fill="#ef6a00" d="M59.456 34.17c0 19.288-14.26 32.759-34.671 32.759H10.509C4.42 66.929 0 62.509 0 56.419V11.937c0-6.09 4.42-10.51 10.51-10.51h14.275c20.426 0 34.686 13.472 34.671 32.744zm-18.193.016c0-9.052-6.485-15.37-15.764-15.37h-7.305V49.54h7.305c9.279 0 15.764-6.303 15.764-15.354zM120.735 40.655c0 16.31-11.648 27.7-28.308 27.7-16.675 0-28.308-11.39-28.308-27.7V9.309c0-5.376 3.827-9.294 9.097-9.294s9.097 3.903 9.097 9.294v30.526c0 5.892 4.45 10.509 10.114 10.509 5.68 0 10.114-4.617 10.114-10.51V9.31c0-5.376 3.827-9.294 9.097-9.294s9.097 3.903 9.097 9.294zM243.9 58.545c0 5.68-3.918 9.81-9.31 9.81-2.778 0-4.95-1.244-7.471-4.297l-17.495-22.249v17.237c0 5.559-3.66 9.295-9.097 9.295-5.437 0-9.097-3.736-9.097-9.295V9.31c0-5.559 3.66-9.295 9.097-9.295 5.437 0 9.097 3.736 9.097 9.295v17.1l16.295-21.824C228.41 1.503 230.946 0 233.68 0c5.377 0 9.599 4.313 9.599 9.81 0 2.263-1.109 4.739-3.205 7.184l-14.427 16.903 15.475 17.495c1.762 1.99 2.764 4.586 2.78 7.153zM266.74 59.046c0 5.558-3.66 9.294-9.095 9.294-5.438 0-9.098-3.736-9.098-9.294V9.309c0-5.558 3.66-9.294 9.098-9.294 5.435 0 9.095 3.736 9.095 9.294z"/><path fill="#c63663" d="M351.666 13.881c-2.84 8.064-5.179 12.058-10.131 11.481-2.612-.303-4.509-1.822-5.331-4.282-.592-1.838-.637-4.632-.15-8.794.47-4.009 1.229-6.56 2.46-8.261 1.64-2.263 4.084-3.235 7.275-2.855 3.841.44 7.593 3.645 6.999 8.671-.089.79-.53 2.385-1.122 4.04z"/><path fill="#ef6a00" d="M145.429 33.654V59.06c0 5.559-3.66 9.294-9.097 9.294-5.437 0-9.097-3.735-9.097-9.294V9.31c0-5.558 3.66-9.294 9.097-9.294 2.627 0 5.011.972 6.424 2.4 1.397 1.427 24.238 32.302 24.238 32.302V9.309c0-5.558 3.66-9.294 9.097-9.294 5.437 0 9.097 3.736 9.097 9.294v49.737c0 5.558-3.66 9.294-9.097 9.294-2.627 0-5.012-.957-6.424-2.4-1.428-1.427-24.238-32.286-24.238-32.286zM291.267 33.654V59.06c0 5.559-3.66 9.294-9.095 9.294-5.438 0-9.098-3.735-9.098-9.294V9.31c0-5.558 3.66-9.294 9.098-9.294 2.627 0 5.01.972 6.422 2.4 1.4 1.427 24.238 32.302 24.238 32.302V9.309c0-5.558 3.66-9.294 9.098-9.294 5.437 0 9.098 3.736 9.098 9.294v49.737c0 5.558-3.66 9.294-9.098 9.294-2.627 0-5.011-.957-6.425-2.4-1.411-1.442-24.238-32.286-24.238-32.286z"/></g></svg>