<?xml version="1.0" encoding="UTF-8" standalone="no"?>
<svg
   xmlns:dc="http://purl.org/dc/elements/1.1/"
   xmlns:cc="http://creativecommons.org/ns#"
   xmlns:rdf="http://www.w3.org/1999/02/22-rdf-syntax-ns#"
   xmlns:svg="http://www.w3.org/2000/svg"
   xmlns="http://www.w3.org/2000/svg"
   xmlns:sodipodi="http://sodipodi.sourceforge.net/DTD/sodipodi-0.dtd"
   xmlns:inkscape="http://www.inkscape.org/namespaces/inkscape"
   width="180.01152mm"
   height="65.302811mm"
   viewBox="0 0 180.01152 65.30281"
   version="1.1"
   id="svg3852"
   inkscape:version="1.0.2-2 (e86c870879, 2021-01-15)"
   sodipodi:docname="Dunkin'_Donuts_2007.svg">
  <defs
     id="defs3846" />
  <sodipodi:namedview
     id="base"
     pagecolor="#ffffff"
     bordercolor="#666666"
     borderopacity="1.0"
     inkscape:pageopacity="0.0"
     inkscape:pageshadow="2"
     inkscape:zoom="1"
     inkscape:cx="329.31472"
     inkscape:cy="111.50801"
     inkscape:document-units="mm"
     inkscape:current-layer="layer1"
     showgrid="false"
     inkscape:window-width="1366"
     inkscape:window-height="705"
     inkscape:window-x="-8"
     inkscape:window-y="-8"
     inkscape:window-maximized="1"
     inkscape:document-rotation="0"
     showguides="true"
     inkscape:guide-bbox="true"
     inkscape:snap-smooth-nodes="false"
     inkscape:snap-global="false" />
  <metadata
     id="metadata3849">
    <rdf:RDF>
      <cc:Work
         rdf:about="">
        <dc:format>image/svg+xml</dc:format>
        <dc:type
           rdf:resource="http://purl.org/dc/dcmitype/StillImage" />
        <dc:title />
      </cc:Work>
    </rdf:RDF>
  </metadata>
  <g
     inkscape:label="Layer 1"
     inkscape:groupmode="layer"
     id="layer1"
     transform="translate(-20.366127,-108.83881)">
    <g
       id="g237">
      <path
         id="path5"
         style="clip-rule:evenodd;fill:#f58220;fill-opacity:1;fill-rule:evenodd;stroke:none;stroke-width:0.384555"
         d="m 104.81524,125.99501 c -0.67353,0.8232 -0.80757,1.30749 -0.80757,2.99953 v 9.03706 c 0,1.57667 -0.73065,2.49961 -2.03814,2.49961 -1.26904,0 -2.038146,-0.99985 -2.038146,-2.61498 v -8.92169 c 0,-1.61513 -0.259782,-2.4702 -0.999844,-3.23026 -0.68291,-0.70137 -1.730499,-1.19212 -2.768799,-1.19212 -1.076755,0 -2.244401,0.56546 -2.961077,1.46131 -0.667907,0.83488 -0.76911,1.3844 -0.76911,3.53791 v 7.96029 c 0,2.99954 0.426943,4.57331 1.845866,6.49899 1.811348,2.45826 4.691575,3.92247 7.69111,3.92247 2.69189,0 5.34275,-1.23282 7.15273,-3.30718 1.61256,-1.84811 2.38425,-4.03783 2.38425,-7.11428 v -8.0372 c 0,-2.03815 -0.15537,-2.72902 -0.88449,-3.57637 -0.69374,-0.80623 -1.84587,-1.34594 -2.92262,-1.34594 -1.11521,0 -2.17295,0.55359 -2.88416,1.42285 z m -18.804762,1.61513 c -2.183875,-1.97024 -4.806943,-2.88416 -8.229486,-2.88416 h -4.57621 c -2.153509,0 -3.5852,0.8431 -4.114742,2.46115 -0.162692,0.49711 -0.153823,0.73066 -0.153823,2.61498 v 12.4596 c 0,1.57667 -0.01477,1.92615 0.11536,2.46115 0.21604,0.88818 0.735891,1.49163 1.576677,2.03814 0.697521,0.45339 1.3844,0.61529 3.153354,0.61529 h 3.153354 c 1.576678,0 2.928061,-0.0857 3.845555,-0.26919 1.967372,-0.39347 3.889477,-1.37849 5.34532,-2.73034 2.31282,-2.14762 3.679677,-5.19161 3.653277,-8.3064 -0.01206,-1.42332 -0.307645,-2.76879 -0.769107,-4.03783 -0.615285,-1.69204 -1.645446,-3.20077 -2.999529,-4.42239 z m -3.730187,8.49868 c 0,1.3844 -0.715679,2.78891 -1.845866,3.61482 -0.869918,0.63571 -1.499766,0.73066 -4.076289,0.73066 v -8.76787 h 0.61529 c 1.192121,0 1.942417,0.0692 2.711116,0.42301 1.65598,0.76225 2.595749,2.30734 2.595749,3.99938 z m 48.838539,-11.53666 c -1.23058,0 -2.40484,0.66541 -3.03799,1.61513 -0.52076,0.78114 -0.6922,1.46131 -0.6922,2.96108 v 4.19165 l -5.92216,-7.30655 c -0.84334,-1.04048 -1.6921,-1.51175 -2.7688,-1.49977 -2.38439,0.0265 -3.92246,1.61514 -3.92246,4.03783 v 14.34392 c 0,1.65359 0.15383,2.34579 0.76911,3.19181 0.73066,0.92293 1.84587,1.46131 2.99953,1.46131 1.11521,0 2.19198,-0.49992 2.88418,-1.34594 0.65374,-0.80757 0.84601,-1.49977 0.84601,-2.99953 v -4.76849 l 5.92215,7.57574 c 0.76912,0.99984 1.76897,1.53822 2.96108,1.53822 1.15366,0 2.23043,-0.49992 2.92263,-1.3844 0.65374,-0.84602 0.80756,-1.57668 0.80756,-3.38409 v -13.84399 c 0,-1.3844 -0.22654,-2.19539 -0.88448,-2.99953 -0.72648,-0.88792 -1.76895,-1.3844 -2.88416,-1.3844 z m 21.41974,11.22902 3.80709,-5.5376 c 0.37483,-0.54521 0.57684,-1.26904 0.57684,-1.96124 0,-1.99968 -1.73051,-3.73018 -3.76865,-3.73018 -1.26902,0 -2.32732,0.62761 -3.07645,1.7305 l -4.15319,6.11443 v -3.61482 c 0,-1.34595 -0.27948,-2.18232 -0.99984,-2.96108 -0.70263,-0.75959 -1.73051,-1.26903 -2.80726,-1.26903 -1.18274,0 -2.16004,0.4758 -2.81719,1.29551 -0.5821,0.72609 -0.913,1.72203 -0.913,2.89614 v 14.5362 c 0,2.61497 1.46132,4.26856 3.80711,4.26856 2.23042,0 3.73018,-1.69204 3.73018,-4.30702 v -3.92246 l 5.61451,7.11427 c 0.54326,0.68838 1.57667,1.11521 2.61498,1.11521 0.98908,0 1.89666,-0.40754 2.5689,-1.06439 0.71301,-0.69669 1.16129,-1.67385 1.16129,-2.74271 0,-0.76911 -0.26148,-1.43603 -0.73066,-2.03814 z m 34.99454,-11.22902 c -1.23059,0 -2.40484,0.6654 -3.03799,1.61513 -0.52076,0.78114 -0.6922,1.46131 -0.6922,2.96108 v 4.19165 l -5.92215,-7.30655 c -0.84334,-1.04048 -1.69205,-1.49977 -2.7688,-1.49977 -1.1729,0 -2.15351,0.39417 -2.84091,1.09118 -0.68739,0.697 -1.08156,1.69685 -1.08156,2.9082 V 142.877 c 0,1.65358 0.13568,2.35927 0.76912,3.1918 0.71278,0.9368 1.84587,1.46132 2.99953,1.46132 1.11521,0 2.19411,-0.49818 2.88416,-1.34595 0.65589,-0.80581 0.84602,-1.49976 0.84602,-2.99953 v -4.73003 l 5.92216,7.57574 c 0.77688,0.9938 1.76895,1.53822 2.96107,1.53822 1.15367,0 2.23308,-0.49785 2.92262,-1.3844 0.65641,-0.84395 0.80757,-1.57668 0.80757,-3.38409 v -13.84399 c 0,-1.3844 -0.22653,-2.19539 -0.88447,-2.99953 -0.72648,-0.88792 -1.73051,-1.3844 -2.88417,-1.3844 z m 12.84414,3.99937 c 0.0269,-1.96142 -1.30748,-3.99937 -3.30716,-3.99937 -1.96124,0 -3.1201,2.19715 -3.1201,4.15838 0,0.88448 -0.19949,2.22752 0.005,3.30199 0.25683,1.34836 0.92506,2.52645 2.42271,2.80726 1.57889,0.29604 2.66589,-1.1488 3.30716,-2.80726 0.47398,-1.22581 0.6806,-2.61505 0.6922,-3.461 z m -36.45585,-3.99937 c -1.07675,0 -2.07458,0.46328 -2.7688,1.23058 -0.76709,0.84784 -0.96138,1.53822 -0.96138,3.42254 v 14.03627 c 0,1.57668 0.2318,2.34479 0.96138,3.1149 0.65482,0.6912 1.76896,1.19212 2.7688,1.19212 0.99985,0 2.05727,-0.47845 2.7688,-1.26903 0.6733,-0.74811 0.96139,-1.61513 0.96139,-3.03799 v -14.03627 c 0,-1.84587 -0.24404,-2.60307 -0.99984,-3.461 -0.66726,-0.75742 -1.65359,-1.19212 -2.73035,-1.19212 z"
         sodipodi:nodetypes="cccccccccccccccccccccccccccccccccccccccccccccccccccccccccccccccccccccccccccccccccccccccccccccccccccccccccccccccccccccccccc" />
      <path
         id="path21"
         style="clip-rule:evenodd;fill:#ec4399;fill-opacity:1;fill-rule:evenodd;stroke:none;stroke-width:0.384555"
         d="m 185.30269,173.64143 c 2.7688,0 4.82112,-0.75506 6.3067,-2.26888 1.40373,-1.43041 2.10759,-3.59832 2.11506,-5.38377 0.009,-2.11504 -0.88448,-4.1532 -2.26888,-5.30687 -1.03829,-0.88448 -2.88416,-1.80741 -4.80694,-2.38424 -0.76911,-0.23073 -1.27614,-0.44787 -1.65359,-0.65375 -0.46901,-0.25582 -0.65374,-0.53837 -0.65374,-0.96138 0,-0.49993 0.42301,-0.96139 0.96139,-0.96139 0.42301,0 0.79606,0.20674 1.61513,0.84602 0.75787,0.59151 1.3419,0.93549 1.92277,1.11521 0.75334,0.23308 1.48406,0.2655 2.19197,0 1.11678,-0.41885 1.80741,-1.46131 1.80741,-2.84571 0,-0.38456 -0.0769,-0.76911 -0.19227,-1.11521 -0.73066,-2.19197 -3.53792,-3.76864 -7.03738,-3.76864 -3.38408,0 -6.0385,1.42229 -7.345,3.76864 -0.57784,1.03774 -0.96107,2.26935 -0.92293,3.8071 0.0773,3.11608 1.76774,5.0144 4.88385,6.22979 1.12717,0.43964 2.40049,0.60417 3.34564,1.30749 0.40225,0.29933 0.61529,0.57684 0.61529,0.99985 0,0.61529 -0.38456,1.0383 -0.99985,1.0383 -0.57683,0 -0.81174,-0.14852 -2.4227,-1.42286 -0.96559,-0.76383 -1.7305,-1.07675 -2.61498,-1.07675 -1.88432,0 -3.34562,1.46131 -3.34562,3.34563 0,0.61529 0.13326,1.1451 0.38455,1.69204 1.05632,2.29914 4.19165,3.99938 8.11412,3.99938 z m -21.22746,-23.18868 c -2.96107,0 -3.26439,0.0483 -4.03784,0.38456 -0.99561,0.43285 -1.8406,1.65204 -1.88432,2.94185 -0.0332,0.98005 0.37488,1.83591 1.0383,2.51884 0.6442,0.66315 1.49976,0.96138 2.7688,0.96138 h 2.0766 v 11.4213 c 0,1.02862 0.1566,2.1856 0.65378,2.92262 0.6625,0.98209 1.80741,1.53822 3.03799,1.53822 1.26903,0 2.4134,-0.5975 3.03799,-1.65359 0.58297,-0.98572 0.65379,-1.88676 0.65379,-2.88416 v -11.38284 h 1.7305 c 1.34595,0 2.26264,-0.27595 2.84571,-0.80757 0.72449,-0.66057 1.2167,-1.65434 1.17287,-2.69188 -0.0715,-1.69325 -1.32819,-2.95083 -3.01882,-3.19181 -0.80976,-0.11542 -1.63791,-0.0769 -2.53807,-0.0769 z m -31.99502,-0.19229 c -1.19211,0 -2.38603,0.65259 -2.99953,1.61513 -0.62244,0.97657 -0.65379,1.90069 -0.65379,2.92262 v 4.42239 l -6.07597,-7.49883 c -0.84317,-1.04062 -1.65359,-1.46131 -2.73035,-1.46131 -2.11505,0 -3.84559,1.33689 -3.84559,3.38409 v 14.88229 c 0,1.13354 0.19459,2.41634 0.76915,3.19181 0.66863,0.90243 1.80741,1.42286 2.96108,1.42286 1.11521,0 2.15233,-0.50089 2.84571,-1.34595 0.53719,-0.65471 0.80756,-1.62671 0.80756,-2.6273 v -5.29454 l 6.03752,7.72957 c 0.7765,0.99412 1.7305,1.49976 2.92262,1.49976 1.15367,0 2.23314,-0.46919 2.88417,-1.3844 0.79698,-1.12039 0.8076,-2.13665 0.8076,-3.34563 v -13.88245 c 0,-1.04941 -0.34845,-2.17397 -0.92293,-2.88417 -0.68746,-0.84987 -1.69203,-1.34594 -2.80725,-1.34594 z m -41.493522,11.34439 c -0.0094,3.07643 1.125362,5.87469 2.999532,7.99875 2.163701,2.45219 5.34532,3.99937 8.92169,3.99937 3.49945,0 6.68108,-1.54718 8.84477,-3.99937 1.87417,-2.12406 3.0671,-4.884 3.03799,-7.88339 -0.0296,-3.04694 -1.27753,-5.99148 -3.19181,-8.03721 -2.1745,-2.32381 -5.26841,-3.76864 -8.72941,-3.76864 -3.460999,0 -6.618111,1.42193 -8.767863,3.76864 -2.063792,2.25288 -3.106338,5.10788 -3.114899,7.92185 z m 11.921222,4.73003 c -2.49962,0 -4.537758,-2.0766 -4.537758,-4.57621 0,-1.80741 1.103679,-3.41164 2.730338,-4.07629 1.19047,-0.48642 2.52283,-0.45195 3.61483,0 1.62364,0.67199 2.73034,2.26888 2.73034,4.07629 0,2.49961 -2.03814,4.57621 -4.53775,4.57621 z m -12.65188,-4.57621 c 2e-6,-1.3844 -0.249671,-2.77585 -0.730653,-4.07629 -0.557417,-1.50709 -1.421835,-2.88699 -2.807255,-4.17243 -2.345773,-2.17649 -4.999221,-3.05721 -8.383308,-3.05721 h -4.614665 c -2.153509,0 -3.545974,0.84349 -4.037832,2.4227 -0.254954,0.81858 -0.192282,1.85246 -0.192282,2.57652 v 12.49805 c 0,0.7879 -0.0081,1.72219 0.181505,2.4227 0.238801,0.88234 0.637695,1.44344 1.472075,1.99969 0.665812,0.44387 1.345945,0.61528 3.114899,0.61528 h 3.153354 c 1.576678,0 2.925779,-0.0975 3.845554,-0.26918 1.964644,-0.36673 3.898229,-1.3277 5.537601,-2.9034 2.323178,-2.23295 3.461006,-5.13381 3.461007,-8.05643 z m -13.344081,-4.42238 c 1.247113,0 2.674667,0.0628 3.441771,0.40378 1.658149,0.737 2.595749,2.32656 2.595749,4.0186 0,1.42286 -0.72398,2.85502 -1.845866,3.65328 -0.877892,0.62465 -1.615131,0.73066 -4.191654,0.76911 z m 71.104211,16.22821 c 2.65344,0 5.39574,-1.1552 7.42192,-3.63404 1.59168,-1.94727 2.0766,-4.05706 2.0766,-6.7105 v -8.48907 c 0,-1.27946 -0.0736,-2.26059 -0.76903,-3.1245 -0.65153,-0.80933 -1.8074,-1.34593 -2.88415,-1.34593 -1.11521,0 -2.1675,0.52761 -2.84571,1.42286 -0.77787,1.0268 -0.80762,1.86382 -0.80762,2.96107 v 9.03705 c 0,1.57668 -0.76911,2.57653 -2.11505,2.57653 -1.34594,0 -2.11506,-1.0383 -2.11506,-2.69189 v -9.42786 c 0,-1.16686 -0.32648,-2.00069 -0.99989,-2.72409 -0.64873,-0.69689 -1.69203,-1.15367 -2.73034,-1.15367 -1.07675,0 -2.23258,0.54338 -2.92261,1.42286 -0.88124,1.12318 -0.76916,2.26426 -0.76916,3.49945 v 7.99875 c 0,2.96108 0.41071,4.54673 1.7882,6.42207 1.81442,2.47019 4.67237,3.96091 7.6719,3.96091 z"
         sodipodi:nodetypes="cccccccccccccccccccccccccccccccccccccccccccccccccccccccccccccccccccccccccccccccccccccccccccccccccccccccccccccccccccccc" />
      <path
         sodipodi:nodetypes="ccccccccccccc"
         inkscape:connector-curvature="0"
         d="m 25.289179,149.22216 -4.768486,-12.10148 v 30.71396 c 0,3.03799 2.461154,5.49914 5.499143,5.49914 h 14.420828 c -0.499923,-0.49992 -0.922933,-1.07675 -1.269033,-1.76895 l -10.382996,-20.1507 c -1.807411,-0.23074 -2.999533,-0.99985 -3.499456,-2.19197 z m -4.57621,-20.80445 c -0.115359,0.42301 -0.192276,0.92293 -0.192276,1.3844 v 4.46084 c 0.615288,-1.30748 2.038142,-2.69188 4.30702,-4.15319 -1.576678,-0.0385 -3.037988,-0.6922 -4.114744,-1.69205 z"
         style="fill:#f58220;fill-opacity:1;stroke:none;stroke-width:0.384555"
         id="path25" />
      <path
         sodipodi:nodetypes="cccccccccccccccc"
         style="fill:#ec4399;fill-opacity:1;stroke:none;stroke-width:0.384555"
         inkscape:connector-curvature="0"
         id="path27"
         d="m 55.938251,138.26237 c 0,0.92294 -0.384556,1.88432 -1.230577,2.88417 0.999844,3.07644 2.807254,9.19087 6.037518,21.15055 l 0.192278,0.65374 v -0.0385 c 1.269033,4.11475 -0.615288,7.9603 -4.960763,10.49837 h 2.807254 c 3.037987,0 5.499141,-2.46116 5.499141,-5.49915 v -38.10944 c 0,-3.03799 -2.461154,-5.49914 -5.499143,-5.49914 h -8.152577 l 0.03846,0.0385 c 0.153821,0.19228 0.269188,0.42301 0.3461,0.65374 0.07692,0.15382 0.115359,0.3461 0.153821,0.53838 l 4.57621,11.61357 c 0.153822,0.3461 0.192278,0.73066 0.192278,1.11521 z" />
      <path
         sodipodi:nodetypes="cccccccccccccccccccccccccccccccccccccccccccccccccccccccccccccccc"
         inkscape:connector-curvature="0"
         d="m 21.174437,126.49493 c 1.269033,1.84587 3.884009,2.7688 6.556671,1.0191 1.40363,-1.0575 1.365173,-3.1341 0.44224,-4.40314 -0.884476,-1.23057 -2.307332,-1.42285 -3.653275,-0.53837 -0.384557,0.26919 -0.461467,0.76911 -0.230733,1.15366 0.115374,0.19228 0.307643,0.30765 0.538376,0.3461 0.230734,0.0385 0.423012,0 0.61529,-0.11535 0.76911,-0.53838 1.153666,-0.19228 1.384399,0.11535 0.269189,0.3461 0.384555,0.88448 0.307644,1.34595 -0.03846,0.3461 -0.153822,0.57683 -0.384555,0.73065 -1.807411,1.19212 -3.422544,0.53838 -4.23011,-0.61529 -0.884477,-1.30748 -0.807567,-3.30717 1.422856,-4.88385 2.191966,-1.49977 3.807098,-0.57683 4.537753,0.11537 1.422855,1.30749 1.999688,3.57637 1.192122,4.96077 -0.230734,0.38455 -0.07692,0.92293 0.307644,1.11521 0.192279,0.11536 0.423012,0.15382 0.615289,0.0769 0.230733,-0.0769 0.384556,-0.19228 0.499923,-0.38456 1.153666,-2.0766 0.499921,-5.15304 -1.538223,-6.99891 -1.768955,-1.69204 -4.268565,-1.80741 -6.537441,-0.23074 -1.692046,1.19212 -2.461157,2.61497 -2.61498,3.99936 -0.153823,1.19211 0.153821,2.30732 0.76911,3.19179 z m 11.38284,-6.80663 c 1.269033,1.49977 2.384244,2.80726 1.692044,5.07614 -0.07692,0.23073 -0.03846,0.42301 0.07692,0.61528 0.115359,0.19228 0.269188,0.3461 0.499922,0.38456 0.423011,0.15382 0.884477,-0.11536 1.038299,-0.53838 0.961388,-3.1149 -0.6922,-5.07613 -2.038144,-6.61435 -1.269033,-1.46131 -2.038143,-2.46116 -1.80741,-3.99938 0.192277,-1.26903 0.76911,-2.26887 1.7305,-2.96107 1.384399,-1.0383 3.191809,-1.15367 3.653275,-1.07676 1.961233,0.30765 2.538066,1.80741 2.691889,2.4227 0.11536,0.42301 0.11536,0.84602 0.07692,1.26903 -0.115359,0.88448 -0.493238,1.71912 -1.249806,2.19197 -0.787558,0.49222 -1.518996,0.42301 -1.942006,0 -0.423012,-0.38456 -0.461467,-0.99985 -0.307645,-1.34595 0.153822,-0.30764 0.576833,-0.42301 1.192121,-0.3461 0.230733,0.0385 0.423012,0 0.61529,-0.15382 0.192277,-0.11536 0.307643,-0.30764 0.3461,-0.53838 0.07692,-0.46146 -0.230734,-0.88447 -0.6922,-0.96138 -1.345945,-0.23074 -2.422699,0.23073 -2.922622,1.19212 -0.538377,1.0383 -0.269189,2.4227 0.615289,3.26872 0.999844,0.96139 2.527701,1.15072 4.018601,0.19228 1.746863,-1.12299 2.365012,-3.30718 1.903545,-5.26841 -0.461466,-1.92278 -1.999688,-3.30717 -4.037832,-3.65327 -0.884478,-0.0385 -3.153354,0.11537 -4.960766,1.46131 -1.307488,0.96139 -2.115054,2.38424 -2.384247,4.07629 -0.346103,2.34578 0.999841,3.92245 2.191963,5.30685 z m 1.615132,7.46038 c -2.538065,0.99984 -5.153041,2.26888 -7.191185,3.53791 -3.576366,2.11505 -5.422232,4.03783 -5.076132,5.30686 0.09526,0.35549 0.307654,0.92293 0.307654,0.92293 l 4.614665,11.69048 c 0.269188,0.6922 1.153666,1.11522 2.614976,1.23058 0.230733,0.0385 0.461466,0.15382 0.576833,0.38456 l 10.652186,20.61217 c 2.038142,4.03783 7.883385,3.92246 12.421139,2.0766 5.114586,-2.0766 7.460374,-5.61451 6.268251,-9.53698 l -6.383618,-22.26576 c -0.07692,-0.23073 -0.03846,-0.49992 0.153822,-0.6922 0.999844,-1.07675 1.345944,-1.96123 1.076756,-2.69188 l -4.614665,-11.69049 -0.384568,-0.88448 c -0.653743,-1.15367 -3.307176,-1.26903 -7.38346,-0.34609 -2.345789,0.49992 -5.114588,1.34595 -7.652654,2.34579 z"
         style="fill:#653600;fill-opacity:1;stroke:none;stroke-width:0.384555"
         id="path33" />
      <path
         sodipodi:nodetypes="ccccccccccccccccccccc"
         inkscape:connector-curvature="0"
         d="m 28.327168,147.79931 -3.88401,-9.65235 c 3.61482,0.26919 9.22933,-1.46131 12.921062,-2.92262 3.691732,-1.46131 8.96014,-4.07628 11.421296,-6.72972 l 3.884009,9.65234 c -0.153822,1.0383 -4.153199,4.53776 -11.190562,7.34501 -7.037364,2.7688 -12.344229,2.99954 -13.151795,2.30734 z m 24.15008,23.49633 c -3.999377,1.61513 -8.88323,1.69204 -10.382996,-1.30749 -0.499922,-1.0383 -7.191186,-13.30561 -10.459908,-20.18916 3.345632,-0.3461 7.42192,-1.53822 10.382996,-2.73034 2.999532,-1.19212 6.768176,-3.1149 9.421608,-5.15304 2.422699,7.2681 6.03752,20.68908 6.38362,21.80429 0.999843,3.30718 -1.499766,6.03752 -5.34532,7.57574 z M 35.749087,130.91732 c -3.845554,1.53822 -7.537286,3.61482 -9.690796,5.26841 -1.499767,0.11536 -2.4227,0 -2.768799,-0.19228 0.230733,-0.92293 3.922465,-4.30702 11.536662,-7.34501 7.614197,-3.03798 12.498051,-3.1918 13.305617,-2.65343 -0.07692,0.38456 -0.653745,1.11521 -1.845866,2.03815 -2.691887,0.30764 -6.691264,1.3844 -10.536818,2.88416 z"
         style="fill:#ffffff;stroke:none;stroke-width:0.384555"
         id="path39" />
      <path
         sodipodi:nodetypes="ccccccccccccccccccccc"
         style="clip-rule:evenodd;fill:#f58220;fill-opacity:1;fill-rule:evenodd;stroke:none;stroke-width:0.384555"
         inkscape:connector-curvature="0"
         id="path41"
         d="m 37.671865,153.41377 c 0,0.15383 0.03846,0.23074 0.269188,0.73066 0.538378,1.15366 1.0383,2.34579 1.576678,3.49945 0.192276,0.42301 0.230733,0.53838 0.3461,0.6922 0.192276,0.23074 0.384555,0.38456 0.730654,0.46147 0.269189,0.0769 0.499922,0.0769 0.999845,-0.0385 0.307643,-0.0769 0.615288,-0.15382 0.922933,-0.23073 0.461466,-0.11536 0.846021,-0.26919 1.076755,-0.38456 0.538376,-0.26919 0.961388,-0.73065 1.230576,-1.26903 0.423011,-0.84602 0.461467,-1.88432 0.115359,-2.7688 -0.153821,-0.3461 -0.384555,-0.73066 -0.65374,-1.0383 -0.384551,-0.42301 -0.846017,-0.73065 -1.384395,-0.92289 -0.884478,-0.34606 -1.807411,-0.3076 -2.845711,-0.0385 -0.461466,0.11538 -0.961388,0.26921 -1.422854,0.34613 -0.6922,0.15384 -0.999845,0.49994 -0.961388,0.9614 z m 3.864771,0.61529 c 0.598737,0.0521 1.067629,0.41893 1.249801,0.88448 0.164019,0.41916 0.08377,0.88974 -0.153819,1.19214 -0.185561,0.23618 -0.346096,0.34612 -1.115207,0.5384 l -1.038299,-2.46116 c 0.3461,-0.0769 0.770195,-0.17884 1.057524,-0.15386 z" />
      <path
         sodipodi:nodetypes="ccccccccccccccccccccc"
         style="clip-rule:evenodd;fill:#ec4399;fill-opacity:1;fill-rule:evenodd;stroke:none;stroke-width:0.384555"
         inkscape:connector-curvature="0"
         id="path43"
         d="m 49.323892,149.14525 c -0.807566,-0.23073 -1.615132,-0.0769 -2.614975,0.42301 -0.461467,0.23073 -0.884478,0.42301 -1.345945,0.61529 -0.615288,0.26919 -0.961388,0.6922 -0.922933,1.23058 0,0.15382 0.03846,0.23073 0.230733,0.76911 l 1.3844,3.57636 c 0.153822,0.46147 0.192278,0.53838 0.307645,0.6922 0.153821,0.23074 0.384555,0.3461 0.653743,0.38456 0.230733,0.0385 0.461466,0 0.961389,-0.19228 0.307644,-0.11536 0.576834,-0.26919 0.884477,-0.38456 0.423011,-0.19227 0.769111,-0.42301 0.999845,-0.61528 0.499921,-0.38456 0.884477,-0.96139 1.153666,-1.57668 0.384555,-0.99984 0.461466,-2.11506 0.153821,-3.03799 -0.192276,-0.42301 -0.384554,-0.76911 -0.615288,-1.07675 -0.3461,-0.38456 -0.769111,-0.65375 -1.230578,-0.80757 z m -0.192284,3.038 c 0.144041,0.41412 0.08004,0.96328 -0.153819,1.34594 -0.189175,0.30955 -0.346096,0.423 -1.038296,0.7691 l -0.922933,-2.53806 c 0.3461,-0.15382 0.728001,-0.33406 0.980613,-0.34609 0.556971,-0.0265 0.970204,0.29694 1.134435,0.76911 z" />
    </g>
  </g>
</svg>
