<?xml version="1.0" encoding="utf-8"?>
<!-- Generator: Adobe Illustrator 24.3.0, SVG Export Plug-In . SVG Version: 6.00 Build 0)  -->
<svg version="1.1" id="Camada_1" xmlns="http://www.w3.org/2000/svg" xmlns:xlink="http://www.w3.org/1999/xlink" x="0px" y="0px"
	 viewBox="0 0 840.1 238" style="enable-background:new 0 0 840.1 238;" xml:space="preserve">
<style type="text/css">
	.st0{fill:#FF8000;}
</style>
<path class="st0" d="M832.1,95.6c0.5,0,0.8-0.3,0.8-0.8c0-0.5-0.3-0.8-0.8-0.8h-0.8v1.6H832.1z M830.4,93.3h1.9
	c0.9,0,1.5,0.6,1.5,1.5c0,0.7-0.5,1.2-0.9,1.3v0c0,0,0.1,0.1,0.2,0.3l0.9,1.8h-1l-0.9-1.9h-0.8v1.9h-0.9V93.3z M832,99.5
	c2.1,0,3.6-1.7,3.6-3.8s-1.6-3.8-3.6-3.8c-2,0-3.6,1.7-3.6,3.8S830,99.5,832,99.5z M832,91.1c2.5,0,4.6,2.1,4.6,4.7
	c0,2.6-2,4.7-4.6,4.7c-2.5,0-4.5-2.1-4.5-4.7C827.5,93.1,829.5,91.1,832,91.1z"/>
<path class="st0" d="M809.3,172L809.3,172c0.1,3.4-1,6.6-2.9,9.2l0.1,0.1l0.1-0.1c-1.8,2.2-4.6,3.3-7.4,3.1h-11.3v-24.2h11.4
	c2.8-0.2,5.6,0.9,7.4,3.1l-0.1-0.1C808.4,165.7,809.4,168.9,809.3,172L809.3,172z M787.8,115.5h10c2.5-0.2,4.9,0.8,6.7,2.6l0.1,0.1
	c1.7,2.3,2.6,5.2,2.3,8.1c0.3,3.1-0.7,6.2-2.5,8.7V135c-1.6,1.9-4.1,2.9-6.6,2.8h-10V115.5z M832.5,171.9v0.1
	c0-9.4-4.2-18.3-11.6-24.2l0.1,0.1l0.1-0.1c6-5.8,9.5-13.8,9.5-22.2v0.4c0.3-8.7-2.7-17.3-8.5-23.9l0.1,0.2
	c-6.2-6.9-15.1-10.8-24.5-10.7h-31.8c-1.1,0-2,0.9-2,2c0,0,0,0,0,0v112c0,1.1,0.9,2,2,2h33.1c10,0.1,19.6-4.2,26.1-11.9l-0.1,0.1
	C830.4,189,833,180.5,832.5,171.9"/>
<path class="st0" d="M746.5,173.4V93.7c-0.1-1-0.9-1.8-1.8-1.8h-20.4c-1-0.1-1.9,0.7-2,1.7c0,0,0,0,0,0v79.8
	c0.1,3.2-0.7,6.4-2.6,8.9c-3.3,3.7-9,4-12.7,0.7c-0.3-0.2-0.5-0.4-0.7-0.7c-1.9-2.6-2.8-5.7-2.6-8.9V93.7c-0.1-1-0.9-1.8-2-1.8
	h-20.4c-1,0-1.9,0.7-2,1.8v79.9c-0.7,9.4,2.4,18.8,8.6,26.1l0.2,0.2c14.3,12.8,36,12.7,50.1-0.4l-0.3,0.2
	C744.1,192.4,747.2,183,746.5,173.4"/>
<path class="st0" d="M659.9,92C659.9,92,659.9,92,659.9,92L659.9,92H640c-1.1,0-2,0.9-2,2c0,0,0,0,0,0v43.4h-20.1V94
	c0-1.1-0.9-2-2-2c0,0,0,0,0,0h-19.8c-1.1,0-2,0.9-2,2c0,0,0,0,0,0v111.7c0,1.1,0.9,2,2,2H616c1.1,0,2-0.9,2-2c0,0,0,0,0,0v-44.9
	h20.1v44.9c0,1.1,0.9,2,2,2h19.8c1.1,0,2-0.9,2-2c0,0,0,0,0,0V94C661.9,92.9,661,92,659.9,92z"/>
<path class="st0" d="M555.9,172L555.9,172c0.1,3.4-1,6.6-2.9,9.2l0.1,0.1l0.1-0.1c-1.8,2.2-4.6,3.3-7.4,3.1h-11.3v-24.2h11.4
	c2.8-0.2,5.6,0.9,7.4,3.1l-0.1-0.1C555.1,165.7,556.1,168.9,555.9,172L555.9,172z M534.5,115.5L534.5,115.5l10,0
	c2.5-0.2,4.9,0.8,6.7,2.6l0.1,0.1c1.7,2.3,2.6,5.2,2.3,8.1c0.3,3.1-0.7,6.2-2.5,8.7V135c-1.6,1.9-4.1,2.9-6.6,2.8h-10V115.5z
	 M579.4,171.9v0.3c0-9.4-4.2-18.3-11.6-24.2h0l0.1-0.1c6-5.8,9.4-13.8,9.4-22.1c0.1-8.5-2.9-16.7-8.5-23.1v0.1
	c-6.2-6.9-15.1-10.8-24.5-10.7h-31.6c-1.1,0-2,0.9-2,2c0,0,0,0,0,0v111.7c0,1.1,0.9,2,2,2H546c10,0.1,19.6-4.2,26.1-11.9l-0.1,0.1
	C577.2,189,579.8,180.5,579.4,171.9"/>
<path class="st0" d="M493.2,173.4V93.7c-0.1-1-0.9-1.8-1.9-1.8H471c-1,0-1.9,0.7-2,1.8v79.7c0.1,3.3-0.8,6.5-2.8,9.1
	c-3.3,3.6-8.9,3.9-12.6,0.6c-0.3-0.2-0.5-0.4-0.7-0.7c-1.9-2.6-2.8-5.7-2.6-8.9V93.7c0-1-0.8-1.8-1.8-1.8c0,0-0.1,0-0.1,0h-20.4
	c-1-0.1-1.9,0.7-2,1.7c0,0,0,0,0,0v79.8c-0.7,9.6,2.4,19,8.6,26.3c6.6,6.6,15.6,10.1,24.8,9.8h0.3c9.3,0.3,18.3-3.2,24.8-9.8
	C490.8,192.4,493.9,183,493.2,173.4"/>
<path class="st0" d="M385.3,137.2L385.3,137.2L385.3,137.2c-2,2.2-4.9,3.4-7.8,3.2h-9.7v-25h9.7c3-0.1,5.9,1,7.9,3.2v-0.1
	c2.1,2.5,3.1,5.6,3,8.9v0.1C388.5,131.2,387.5,134.5,385.3,137.2z M397.6,157.8L397.6,157.8L397.6,157.8c2.1-1.5,4-3.1,5.6-5
	l-0.1,0.1c6.1-7,9.3-16.1,8.9-25.3v-0.2c0.2-9.2-3.2-18-9.3-24.8l0.4,0.4c-6.1-6.9-14.8-10.9-23.9-11.2h-33.3c-1.1,0-2,0.9-2,2
	c0,0,0,0,0,0v111.8c0,1.1,0.9,2,2,2h19.8c1.1,0,2-0.9,2-2c0,0,0,0,0,0v-41.4h7.3l12.5,42.2c0.2,0.8,1,1.4,1.9,1.4h21.1
	c0.6,0,1.2-0.3,1.6-0.8c0.3-0.5,0.3-1.2,0-1.8L397.6,157.8"/>
<path class="st0" d="M320,99.9c-6.6-6.6-15.6-10.1-24.9-9.8l0,0H295c-9.3-0.3-18.3,3.2-24.9,9.8l0.2-0.3c-6.3,7.3-9.5,16.7-9,26.3
	v47.6c-0.7,9.6,2.4,19,8.6,26.3c6.6,6.6,15.6,10.1,24.8,9.8h0.4c9.3,0.3,18.3-3.2,24.9-9.8c6.2-7.3,9.2-16.8,8.6-26.4v-26
	c-0.1-1.1-1-2-2.1-2h-29.3c-1.1,0-2,0.9-2.1,2v19.5c0.1,1.2,1,2.1,2.1,2.1h8.1v4.5c0.2,3.4-0.8,6.7-2.8,9.4l0.1-0.1
	c-1.8,2.2-4.5,3.4-7.3,3.2h-0.1c-2.8,0.2-5.5-0.9-7.3-3.1c-2-2.7-3.1-5.9-2.9-9.3v-47.3c-0.1-3.4,0.9-6.8,3.1-9.5
	c1.8-2.2,4.5-3.4,7.3-3.2h0.1c2.8-0.2,5.5,0.9,7.3,3.1l0.1,0.1c1.8,2.8,2.7,6.1,2.4,9.4v4.4c0.1,1,1,1.8,2,1.8h19.8
	c1,0,1.9-0.7,2-1.8v-4.5C329.6,116.5,326.3,107.1,320,99.9L320,99.9"/>
<path class="st0" d="M203.8,73.2c-0.4-0.6-0.8-1.2-0.8-2v0c-2.1-23.9-5.5-39.7-5.5-39.7c-0.5-2.7-2.9-4.7-5.6-5.1l-19.1-2.3
	c-0.2,0-0.3,0-0.5,0c-2.2,0-4,1.8-4,4v6.6c0,0.1-0.1,0.2-0.2,0.2c-0.1,0-0.1,0-0.2-0.1l0,0c-11.4-10.3-24.3-20.3-38.5-29
	c-2.7-1.8-5.9-2.9-9.4-2.9v0h0v0c-3.5,0-6.7,1-9.4,2.9C44.7,46.6,8.5,112.6,7.1,116.2c-0.4,0.8-0.6,1.8-0.6,2.8c0,3,2.1,5.6,4.9,6.3
	l18.9,3.6c2.5,0.7,4.4,2.9,4.7,5.5c0.2,3.3,3.7,78.1,8.2,97.4c0.7,2.8,3.3,4.9,6.3,4.9h0.1c11.1-0.3,21.2-0.5,32.1-0.6c0,0,0,0,0,0
	h0l0.1,0c0.3,0,0.6,0,0.8,0c1.2,0,2.1-1,2.1-2.1c0,0,0,0,0-0.1c-0.4-6.5-1.4-21.4-2.2-37.1c0-0.4-0.1-0.9-0.1-1.3h0
	c-0.1-1.4-0.8-2.6-1.9-3.2c-5.7-3.4-9.6-9.5-9.9-16.5c-1-26.2-1.5-56.5-0.1-80.2c0.1-2,1.7-3.6,3.7-3.6c2.1,0,3.8,1.6,3.9,3.7
	c0,0.1,0,0.2,0,0.3c-0.9,15.8-1,34.5-0.7,52.9c0,2.5,2.1,4.5,4.6,4.4c2.5,0,4.5-2.1,4.4-4.6c-0.3-18.5-0.3-37.3,0.7-53.2
	c0.1-2,1.7-3.6,3.7-3.6c2.1,0,3.8,1.6,3.9,3.7c0,0.1,0,0.2,0,0.3c-0.9,15.7-1,34.3-0.7,52.6c0,0,0,0,0,0c0,2.5,2.1,4.5,4.6,4.4
	c2.5,0,4.5-2.1,4.4-4.6c-0.3-18.5-0.2-37.2,0.7-52.9c0.1-2,1.7-3.6,3.7-3.6c2.1,0,3.8,1.6,3.9,3.7c0,0.1,0,0.2,0,0.3
	c-1.4,23-0.9,52.2,0,77.8c0,0,0,0.2,0,0.2c0,0.1,0,0.3,0,0.4c0,0,0,0,0,0c0,0.1,0,0.2,0,0.3c0,7-3.5,13.2-8.9,16.9
	c-1,0.7-1.6,1.7-1.7,3c0,0-0.5,3.9,1.3,23c0.8,8.3,1.4,14.1,1.7,16.7c0.1,1,1,1.8,2,1.8c0.6,0,1.2,0,1.8,0h0c3.6,0,7.4,0,11.3,0h0.7
	h0.7c4.9,0,9.7,0,14.2,0l10.7,0.1c0,0,0,0,0,0c1,0,1.9-0.8,2-1.8c2.5-22.8,3.1-35.6,3.1-35.6c0-1.2-0.9-2-2-2.2l-13.1-1.8
	c-2.1-0.4-3.3-1.6-3.7-3.2c-0.3-0.9-0.2-2-0.2-2C137,113.4,162,87.8,162,87.8c0.7-0.8,1.2-1.1,1.2-1.1c0.7-0.5,1.5-0.8,2.4-0.8
	c1.7,0,3.2,1.1,3.7,2.6c0,0,0.2,0.5,0.3,1.8c2.2,23.9,1.1,64.6-0.2,96.3c-1.1,26.9-2.5,48.1-2.5,48.1c0,0,0,0,0,0
	c0,0.9,0.7,1.6,1.6,1.6v0c7.1,0.1,14.1,0.3,21.5,0.4h0.1c3,0,5.6-2.1,6.3-4.9c4.5-19.4,8.1-94.1,8.2-97.4c0.3-2.7,2.2-4.8,4.7-5.5
	l18.9-3.6c2.8-0.7,4.9-3.3,4.9-6.3c0-1-0.2-1.9-0.6-2.8C232,114.4,222.1,96.1,203.8,73.2"/>
</svg>
