<?xml version="1.0" encoding="UTF-8" standalone="no"?>
<!-- Generator: Adobe Illustrator 12.0.0, SVG Export Plug-In . SVG Version: 6.00 Build 51448)  -->

<svg
   version="1.1"
   id="Layer_1"
   width="437.08597"
   height="348.84406"
   viewBox="0 0 437.08597 348.84404"
   overflow="visible"
   enable-background="new 0 0 187.086 149.24"
   xml:space="preserve"
   style="overflow:visible"
   xmlns="http://www.w3.org/2000/svg"
   xmlns:svg="http://www.w3.org/2000/svg"
   xmlns:rdf="http://www.w3.org/1999/02/22-rdf-syntax-ns#"
   xmlns:cc="http://creativecommons.org/ns#"
   xmlns:dc="http://purl.org/dc/elements/1.1/"><metadata
   id="metadata222"><rdf:RDF><cc:Work
       rdf:about=""><dc:format>image/svg+xml</dc:format><dc:type
         rdf:resource="http://purl.org/dc/dcmitype/StillImage" /></cc:Work></rdf:RDF></metadata><defs
   id="defs220">
	
	
</defs>

<g
   id="layer3"
   transform="translate(124.99999,99.7191)"
   style="display:inline;opacity:1"><g
     id="g1028"><path
       id="polygon211"
       d="M 202.62642,-47.650345 180.92702,-99.7191 H 6.9229417 L -14.521806,-47.498487 -124.99999,0.76446194 V 6.2897822 l 437.08597,-9.3e-6 V 0.56474005 Z"
       style="clip-rule:evenodd;fill:#ef0819;fill-opacity:1;fill-rule:evenodd;stroke:none;stroke-width:2.33628368" /><path
       style="fill:#000000;stroke:none;stroke-width:1.81353784"
       d="m 25.826335,25.787037 c 0,7.435506 6.165459,13.328794 16.656775,13.365991 10.491317,0.03721 16.659898,-5.80523 16.659898,-13.295144 0,-7.48991 -6.168581,-13.346507 -16.668967,-13.34651 -10.500378,-3e-6 -16.647706,5.840157 -16.647706,13.275663 z m -92.472726,-3.12056 c -2.158115,0 -3.336633,1.578484 -3.336633,3.899815 0,2.883525 4.625945,4.644781 4.625945,10.792674 v 86.376844 c 0,9.12209 -5.335475,10.13896 -5.348522,13.095 -0.0063,1.50804 1.191014,2.75573 2.699048,2.75573 h 39.664061 c 1.599243,0 2.835856,-1.3024 2.883239,-2.90095 0.06993,-2.35999 -5.456993,-7.52778 -5.44061,-12.02532 l 0.290445,-79.73899 c 0.03094,-8.487304 1.976481,-11.391288 7.417091,-11.391288 6.655685,0 13.147066,8.488913 13.3642191,26.987001 0.2725013,23.21328 -14.2309071,27.825016 -16.8991951,29.016609 -0.737728,0.329453 -1.360159,1.005591 -1.360159,1.813542 0,4.518741 8.812521,9.067676 17.281741,9.067676 15.7777807,0 34.928315,-13.311066 34.928315,-40.514131 0,-15.469482 -6.492045,-37.234212 -33.1147733,-37.234212 z M 203.24488,58.250076 c -0.012,5.45776 4.38919,9.879098 9.84695,9.86465 5.93025,-0.0157 9.81793,-5.162053 10.88122,-8.724096 1.83841,-6.158664 5.96658,-7.956537 9.0677,-7.941323 4.69916,0.02302 8.57955,3.805408 8.6143,8.5045 0.0637,8.61407 -9.19492,10.437851 -21.07174,13.148145 -17.4481,3.981662 -23.57599,11.950799 -23.57599,24.500473 0,11.697315 10.3021,21.399445 25.64455,21.454305 7.08567,0.0254 13.96829,-2.35052 19.43885,-6.85391 0.73558,-0.60553 1.8271,-0.54135 2.46883,0.16287 3.88148,4.25936 9.39751,6.58084 15.16005,6.54573 12.31369,-0.0751 16.48477,-7.43451 16.48477,-10.31803 0,-4.35247 -7.63679,2.41319 -7.63679,-12.747992 V 60.24426 c 0,-13.130014 -14.50731,-19.279469 -31.31876,-19.279469 -16.81145,0 -33.97613,4.699354 -34.00394,17.285285 z M 139.93401,42.307243 c -3.13744,10e-7 -4.06277,1.832798 -4.06277,5.242246 v 20.402307 c 0,2.629627 0.89049,4.151298 3.24809,4.151298 4.18928,0 5.42029,-10.011811 11.66045,-14.851876 3.13582,-2.432219 6.8729,-3.779214 16.03142,-3.952954 0.87975,-0.01668 1.42513,0.968189 0.94219,1.70375 l -37.10315,56.510106 c -1.85153,2.81997 0.14382,6.57688 3.51727,6.56698 l 13.27567,-0.0389 c 22.56031,-0.0662 31.62711,21.76245 49.76247,21.76245 15.28814,0 26.1416,-12.96394 26.1688,-15.99243 0.014,-1.55907 -1.28577,-2.69363 -2.84427,-2.64947 -3.78878,0.10737 -3.93723,2.10401 -11.40899,2.10401 -16.75709,0 -22.8873,-14.23557 -43.9606,-14.23557 l 31.35792,-48.586485 c 1.01751,-1.576536 7.61502,-10.752599 7.61544,-13.21901 4.7e-4,-2.714245 -2.19861,-4.916372 -4.91285,-4.916371 z m -1.59391,80.957567 c -16.70268,0 -22.88729,-14.23557 -43.960583,-14.23557 L 125.73389,60.51711 c 1.01852,-1.575878 7.6017,-10.756113 7.60127,-13.222525 -4.7e-4,-2.707359 -2.19132,-4.91286 -4.89868,-4.91286 H 69.135208 c -3.137421,0 -4.062738,1.811128 -4.062738,5.238711 V 67.95176 c 0,2.629627 0.905062,4.151299 3.244522,4.151299 4.189273,0 5.446103,-10.005971 11.681742,-14.851877 3.122228,-2.426376 6.87335,-3.795792 16.013676,-3.952954 0.879807,-0.01516 1.425102,0.968162 0.9422,1.70375 L 60.17729,111.02328 c -1.663303,-2.11378 -2.305881,-4.76278 -2.305881,-7.45252 V 48.038297 c 0,-3.808431 -1.231084,-5.638962 -4.169011,-5.638962 l -25.38245,3e-6 c -1.696009,0 -3.23745,0.289093 -3.23745,2.465338 0,2.901664 4.753456,4.42659 4.753456,12.025321 V 102.4445 c 0,8.77753 -5.440619,7.38068 -5.440619,12.25911 0,2.43014 2.773437,3.37556 2.773437,3.37556 h 33.061654 c 0.469347,0 0.927225,-0.14599 1.342438,-0.36482 0.522063,0.22527 1.082031,0.36482 1.650613,0.36482 h 13.27566 c 22.524143,0 31.681093,21.76245 49.780193,21.76245 15.19746,0 26.15107,-13.00484 26.15107,-15.99595 0,-1.56071 -1.27356,-2.66716 -2.77519,-2.66716 -3.7177,0 -3.86147,2.0863 -11.31511,2.0863 z M 242.21471,77.919239 c 0.26363,0.04807 0.38606,0.255743 0.38606,0.697791 v 16.55562 c 0,4.91087 -3.69459,9.00489 -8.60545,9.00489 -4.91084,0 -8.60543,-4.08766 -8.60543,-9.00489 0,-9.865645 12.69444,-16.085612 14.20014,-16.55562 1.34836,-0.420894 2.18529,-0.777869 2.62468,-0.697791 z M -11.64165,130.08318 c -2.248786,0 -3.807719,1.0894 -3.807719,3.12056 0,3.62707 4.608233,3.6251 4.608233,11.56839 v 41.87429 c -5.650513,0.98031 -11.369751,1.56573 -17.10464,1.57976 -23.37643,0.0572 -29.015473,-11.33461 -31.935268,-11.33461 -5.894003,0 -6.218883,31.64483 21.546388,31.64483 7.816349,0 17.555328,-2.64832 27.49352,-6.02151 v 29.56208 c 0,4.49758 -5.44062,9.66773 -5.44062,12.02532 0,3.40946 2.658612,3.13475 2.865536,3.13475 h 39.713649 c 1.551503,0 2.710597,-1.43804 2.702598,-2.98953 -0.01525,-2.95602 -5.440619,-3.99105 -5.440619,-13.09502 v -40.49644 c 3.266577,-0.97725 6.639463,-1.64558 10.048841,-1.68602 8.595565,-0.10198 11.299197,5.25307 11.299197,8.70287 v 34.98497 c 0,7.96144 -4.608233,7.95988 -4.608233,11.55067 0,2.03117 1.559361,3.12058 3.790016,3.12058 h 35.417112 c 0.890804,0 4.502623,0.004 4.480729,-3.89982 -0.014,-2.50264 -4.608154,-5.22298 -4.604702,-10.88122 l 0.05315,-87.21277 c 0.0027,-4.49757 5.440623,-9.64645 5.440623,-12.00406 0,-3.35039 -2.183469,-3.15597 -2.865538,-3.15597 h -39.66051 c -1.55631,0 -2.702598,1.45441 -2.702598,3.01075 0,2.87895 5.330807,3.96981 5.330807,13.07377 v 34.11363 c -3.395153,-2.1118 -7.30191,-3.41076 -11.299188,-3.3189 -3.403947,0.0783 -6.762456,0.80048 -10.0453,1.70372 v -33.89402 c 0,-5.58569 4.622393,-8.27061 4.622393,-10.88123 0,-3.95397 -3.699394,-3.89982 -4.477175,-3.89982 z m 206.69729,22.26189 c -0.91068,0.0878 -1.91813,0.53531 -2.83721,1.22556 l -26.07668,19.58408 c -3.18462,2.39171 -4.02635,8.45009 4.24338,8.50451 v 45.64659 c 0,13.11188 6.52975,21.6385 18.69858,21.6385 9.43039,0 14.92889,-3.75332 18.56751,-9.99573 2.29165,-3.93153 2.15911,-7.39584 -0.34357,-7.39584 -1.9949,0 -1.81355,0.92448 -4.53385,0.92448 -3.33691,0 -4.96953,-3.06756 -4.96953,-6.38633 v -44.77527 h 10.59078 c 2.26693,0 3.33663,-2.24765 3.33663,-4.73219 0,-2.48456 -1.06971,-5.07933 -3.33663,-5.07933 h -10.59078 v -16.32184 c 0,-2.16491 -1.23086,-2.98347 -2.74863,-2.83719 z m -107.494629,19.1236 c -1.725385,0 -3.173694,1.36972 -3.173694,3.08162 0,2.86538 3.627076,2.95848 3.627076,10.62972 v 44.64775 c 0,6.51061 5.603272,19.29718 24.355247,19.29718 15.45135,0 23.79206,-8.45138 23.79206,-8.45138 0,0 -1.0336,6.56348 5.58584,6.56348 h 22.12728 c 1.23664,0 2.24921,-1.11954 2.24921,-2.28465 0,-3.46386 -4.78886,-4.89584 -4.78886,-12.42203 v -57.4169 c 0,-2.08557 -1.77785,-3.62706 -7.38169,-3.62706 h -21.76245 c -1.64704,0 -2.84783,1.47366 -2.84783,3.06389 0,3.73589 4.3178,3.04971 4.3178,13.47756 v 35.68984 c 0,6.56503 -4.85973,9.77258 -10.30035,9.77258 -5.44061,0 -7.25414,-5.8202 -7.25414,-10.0276 v -46.55336 c 0,-5.54944 -6.14902,-5.44064 -10.22947,-5.44064 z"
       id="path7324" /></g></g><style
   id="style7166"
   type="text/css">
	.st0{fill:#FFCB05;}
	.st1{fill:#00B6F1;}
	.st2{fill:#ED1C24;}
</style><style
   type="text/css"
   id="style7166-9">
	.st0{fill:#FFCB05;}
	.st1{fill:#00B6F1;}
	.st2{fill:#ED1C24;}
</style></svg>
