<?xml version="1.0" encoding="UTF-8" standalone="no"?>
<svg
   enable-background="new 0 0 200 200"
   viewBox="0 0 1000 941.23644"
   version="1.1"
   id="svg187"
   sodipodi:docname="Pizza_Hut_logo.svg"
   width="1000"
   height="941.23645"
   inkscape:version="1.2.1 (9c6d41e410, 2022-07-14)"
   inkscape:export-filename="C:\Users\tjdru\OneDrive\Pictures\Logos\Other\pizzahutlogo2014.png"
   inkscape:export-xdpi="243.19179"
   inkscape:export-ydpi="243.19179"
   xmlns:inkscape="http://www.inkscape.org/namespaces/inkscape"
   xmlns:sodipodi="http://sodipodi.sourceforge.net/DTD/sodipodi-0.dtd"
   xmlns="http://www.w3.org/2000/svg"
   xmlns:svg="http://www.w3.org/2000/svg"
   xmlns:rdf="http://www.w3.org/1999/02/22-rdf-syntax-ns#"
   xmlns:cc="http://creativecommons.org/ns#"
   xmlns:dc="http://purl.org/dc/elements/1.1/">
  <metadata
     id="metadata193">
    <rdf:RDF>
      <cc:Work
         rdf:about="">
        <dc:format>image/svg+xml</dc:format>
        <dc:type
           rdf:resource="http://purl.org/dc/dcmitype/StillImage" />
      </cc:Work>
    </rdf:RDF>
  </metadata>
  <defs
     id="defs191">
    <linearGradient
       x1="70.028717"
       y1="51.907372"
       x2="410.33701"
       y2="59.431808"
       gradientUnits="userSpaceOnUse"
       id="color-1"
       gradientTransform="matrix(1.0919781,0,0,1.0919781,-87.40423,-17.968716)">
      <stop
         offset="0"
         stop-color="#bc1c2a"
         id="stop4079" />
      <stop
         offset="1"
         stop-color="#e43f23"
         id="stop4081" />
    </linearGradient>
    <radialGradient
       cx="188.59018"
       cy="16.565281"
       r="115.57071"
       gradientUnits="userSpaceOnUse"
       id="color-2"
       gradientTransform="matrix(1.0919781,0,0,1.0919781,-87.40423,-17.968716)">
      <stop
         offset="0"
         stop-color="#ffffff"
         id="stop4084" />
      <stop
         offset="0.785"
         stop-color="#ce2722"
         id="stop4086" />
    </radialGradient>
    <linearGradient
       x1="297.95844"
       y1="46.09584"
       x2="401.23447"
       y2="48.379341"
       gradientUnits="userSpaceOnUse"
       id="color-3"
       gradientTransform="matrix(1.0919781,0,0,1.0919781,-87.40423,-17.968716)">
      <stop
         offset="0"
         stop-color="#e05b4f"
         id="stop4089" />
      <stop
         offset="1"
         stop-color="#dc3822"
         id="stop4091" />
    </linearGradient>
    <linearGradient
       x1="72.050003"
       y1="51.214241"
       x2="302.47427"
       y2="56.309071"
       gradientUnits="userSpaceOnUse"
       id="color-4"
       gradientTransform="matrix(1.0919781,0,0,1.0919781,-87.40423,-17.968716)">
      <stop
         offset="0"
         stop-color="#c72f2e"
         id="stop4094" />
      <stop
         offset="0.521"
         stop-color="#dd7d83"
         id="stop4096" />
      <stop
         offset="1"
         stop-color="#e88783"
         id="stop4098" />
    </linearGradient>
    <linearGradient
       x1="92.355942"
       y1="71.254761"
       x2="402.72849"
       y2="78.117302"
       gradientUnits="userSpaceOnUse"
       id="color-5"
       gradientTransform="matrix(1.0919781,0,0,1.0919781,-87.40423,-17.968716)">
      <stop
         offset="0"
         stop-color="#cf3738"
         id="stop4101" />
      <stop
         offset="0.493"
         stop-color="#d0342c"
         id="stop4103" />
      <stop
         offset="0.743"
         stop-color="#f0b6af"
         id="stop4105" />
      <stop
         offset="1"
         stop-color="#f5c9c3"
         id="stop4107" />
    </linearGradient>
    <linearGradient
       x1="91.99823"
       y1="87.433083"
       x2="383.42145"
       y2="93.876633"
       gradientUnits="userSpaceOnUse"
       id="color-6"
       gradientTransform="matrix(1.0919781,0,0,1.0919781,-87.40423,-17.968716)">
      <stop
         offset="0"
         stop-color="#d76062"
         id="stop4110" />
      <stop
         offset="0.667"
         stop-color="#d86465"
         id="stop4112" />
      <stop
         offset="0.958"
         stop-color="#f5c9c3"
         id="stop4114" />
      <stop
         offset="1"
         stop-color="#fadad5"
         id="stop4116" />
    </linearGradient>
    <linearGradient
       x1="71.618553"
       y1="75.893593"
       x2="172.0742"
       y2="78.114738"
       gradientUnits="userSpaceOnUse"
       id="color-7"
       gradientTransform="matrix(1.0919781,0,0,1.0919781,-87.40423,-17.968716)">
      <stop
         offset="0"
         stop-color="#e7a099"
         id="stop4119" />
      <stop
         offset="1"
         stop-color="#d24543"
         id="stop4121" />
    </linearGradient>
    <linearGradient
       x1="112.51688"
       y1="46.233761"
       x2="289.42044"
       y2="50.14521"
       gradientUnits="userSpaceOnUse"
       id="color-8"
       gradientTransform="matrix(1.0919781,0,0,1.0919781,-87.40423,-17.968716)">
      <stop
         offset="0"
         stop-color="#e36e71"
         id="stop4124" />
      <stop
         offset="0.12"
         stop-color="#e36d6b"
         id="stop4126" />
      <stop
         offset="0.226"
         stop-color="#e78770"
         id="stop4128" />
      <stop
         offset="0.358"
         stop-color="#eca892"
         id="stop4130" />
      <stop
         offset="0.478"
         stop-color="#fbe9df"
         id="stop4132" />
      <stop
         offset="0.54"
         stop-color="#fae6df"
         id="stop4134" />
      <stop
         offset="0.73"
         stop-color="#eca892"
         id="stop4136" />
      <stop
         offset="0.904"
         stop-color="#d74d3f"
         id="stop4138" />
    </linearGradient>
    <linearGradient
       x1="91.216759"
       y1="73.202721"
       x2="156.36691"
       y2="74.643227"
       gradientUnits="userSpaceOnUse"
       id="color-9"
       gradientTransform="matrix(1.0919781,0,0,1.0919781,-87.40423,-17.968716)">
      <stop
         offset="0.129"
         stop-color="#f9cfbe"
         id="stop4141" />
      <stop
         offset="0.539"
         stop-color="#ffffff"
         id="stop4143" />
      <stop
         offset="0.832"
         stop-color="#f9cfbe"
         id="stop4145" />
    </linearGradient>
    <linearGradient
       x1="152.6571"
       y1="40.837189"
       x2="251.18561"
       y2="43.01572"
       gradientUnits="userSpaceOnUse"
       id="color-10"
       gradientTransform="matrix(1.0919781,0,0,1.0919781,-87.40423,-17.968716)">
      <stop
         offset="0"
         stop-color="#f9cfbe"
         id="stop4148" />
      <stop
         offset="0.539"
         stop-color="#ffffff"
         id="stop4150" />
      <stop
         offset="1"
         stop-color="#f9cfbe"
         id="stop4152" />
    </linearGradient>
  </defs>
  <sodipodi:namedview
     pagecolor="#ffffff"
     bordercolor="#666666"
     borderopacity="1"
     objecttolerance="10"
     gridtolerance="10"
     guidetolerance="10"
     inkscape:pageopacity="0"
     inkscape:pageshadow="2"
     inkscape:window-width="1366"
     inkscape:window-height="705"
     id="namedview189"
     showgrid="false"
     inkscape:zoom="0.5"
     inkscape:cx="178"
     inkscape:cy="514"
     inkscape:window-x="-8"
     inkscape:window-y="-8"
     inkscape:window-maximized="1"
     inkscape:current-layer="svg187"
     inkscape:document-rotation="0"
     inkscape:snap-global="false"
     inkscape:showpageshadow="2"
     inkscape:pagecheckerboard="0"
     inkscape:deskcolor="#d1d1d1" />
  <g
     id="g6082"
     transform="matrix(2.6177944,0,0,2.6177944,240.74246,207.38152)">
    <path
       id="path843"
       style="fill:#ee3a43;fill-opacity:1;stroke:none;stroke-width:3.82"
       d="m 124.88413,-79.216117 c -16.44581,-0.11618 -30.442736,2.433732 -45.873046,5.138672 -36.19219,6.3198 -79.807531,21.749979 -111.056642,48.443359 -21.36258,18.22215 -42.938672,45.786577 -51.138672,80.466802 -4.46787,18.55259 -4.996041,37.83628 -1.550781,56.605464 1.24073,7.15333 11.417969,13.78348 11.417969,2.15235 1.14371,-129.473856 107.723586,-153.550718 111.484376,-154.326178 1.33738,-0.27122 2.67518,-0.523795 3.87695,-0.833985 1.6682,-0.47558 3.41046,-0.632924 5.13672,-0.464843 0.40492,0.0936 0.74884,0.361068 0.93945,0.730468 0.35832,0.69447 0.0851,1.54793 -0.60937,1.90625 -8.54877,3.97394 -41.737526,15.314531 -59.765626,31.113282 -18.2997,16.10931 -42.298681,41.949292 -49.800782,86.535152 -1.279319,7.67629 -2.519187,47.125234 1.164063,74.884774 2.11284,15.99281 13.027466,37.60736 20.316406,46.91211 19.54005,24.98737 53.328269,46.27163 71.724609,52.76562 11.82519,4.168 25.91756,5.42876 33.14844,7.13477 1.03827,0.1421 1.80749,1.03615 1.79297,2.08398 -0.0161,1.14561 -0.9579,2.06102 -2.10352,2.04493 -11.70867,1.86072 -39.99166,-4.63329 -63.253905,-16.08985 -17.54373,-8.60683 -29.581019,-20.4322 -41.386719,-33.20703 -12.98838,-14.11222 -19.928858,-28.65077 -24.736328,-27.68164 -7.92841,1.60898 -1.22156,18.55102 2.28711,25.08398 11.98027,22.37067 36.000044,41.77559 47.921874,48.28907 28.322988,15.06836 60.338748,21.78983 92.330078,19.38476 73.450536,-6.18381 118.619236,-41.46391 138.605466,-69.06836 11.72816,-16.20596 37.95631,-50.30544 37.33594,-100.16406 0,-7.94788 0.67785,-63.156194 -17.44727,-91.923832 -4.10994,-6.55244 -16.41996,-33.419909 -63.08008,-56.255859 -3.6057,-1.78355 -19.55893,-9.809484 -32.5664,-10.177734 -5.46642,-0.15509 -16.5354,-0.601796 -15.50782,-7.134766 0.73689,-4.57483 27.93344,1.475023 30.76368,2.289063 19.52095,5.29184 44.58598,20.334057 61.97461,33.554687 53.98765,41.270877 48.56054,128.503911 48.56054,128.503911 -2.30689,92.85497 -56.56594,132.11079 -95.62695,155.37305 -0.69791,0.4458 -3.54779,4.01238 -2.63672,5.4082 0.91107,1.39583 2.7137,1.26046 4.65234,1.06641 14.92664,-1.47338 29.58033,-12.6207 42.06446,-22.42969 64.37842,-50.40143 67.67545,-89.81111 71.24219,-104.67969 5.25326,-21.57573 5.524,-65.250534 3.02343,-78.820314 0,0 -12.67884,-105.280874 -103.05273,-133.757814 -25.22994,-7.95763 -44.12451,-10.739289 -60.57031,-10.855469 z M -82.77798,134.09834 c -13.20115,-0.27122 -8.879574,20.95589 -6.902343,28.05078 0.73612,3.14767 2.397701,6.00272 4.769531,8.19922 2.51127,2.02155 5.504257,3.35705 8.685547,3.87695 5.62189,1.02758 7.055596,-3.58594 6.628906,-5.67968 -0.8977,-4.79027 -1.396308,-9.64675 -1.492188,-14.51954 -0.31018,-5.42784 -0.872671,-11.88304 -4.419921,-16.32226 -1.751091,-2.24196 -4.425162,-3.56765 -7.269532,-3.60547 z"
       sodipodi:nodetypes="cccccccccccccccccccccccccccccccccccccccccccccccccc" />
    <path
       id="path840"
       style="fill:#ffffff;fill-opacity:1;stroke:none;stroke-width:3.82"
       d="m 136.73374,-8.362602 0.93164,0.06836 c 3.97168,0.966137 4.22088,4.784369 5.125,8.574219 1.1278,4.794867 2.17984,9.41061 3.68164,14.291015 0.14177,0.959719 0.44509,1.880673 0.89843,2.722656 1.34969,0.662178 2.77612,1.16832 4.25196,1.509766 10.49418,3.377742 20.87957,6.243872 30.69531,10.154302 5.38755,2.11586 10.9651,4.55437 16.02734,6.97656 2.45027,1.16644 4.96245,2.45434 7.52735,3.93945 2.56526,1.48513 6.10398,3.33295 6.16601,6.94531 l -0.12304,1.01758 c -0.56342,3.03582 -3.07383,5.41217 -6.11329,5.78516 -1.21102,0.0672 -2.42037,0.0455 -3.61914,-0.0664 -8.48342,-0.16758 -17.27282,-0.0282 -25.48437,0.0957 -28.86223,0.56956 -57.08158,1.69134 -84.037106,4.7461 -36.11328,4.1766 -70.68596,9.41383 -105.50586,14.32422 l -1.044922,-0.0762 c -2.261707,-0.13688 -4.012799,-1.90262 -4.140625,-4.17774 l 0.0918,-0.75 c 0.811671,-2.42426 2.921036,-3.53172 4.765625,-4.81445 1.300725,-0.91463 2.593272,-1.75286 3.787109,-2.57813 12.900377,-8.24118 26.370763,-15.49047 40.287103,-21.68164 4.74615,-2.10067 10.30866,-4.12304 15.23047,-6.25 1.37932,-0.37955 2.58536,-1.27081 3.3711,-2.49023 2.77705,-3.91117 5.32071,-7.95508 7.85547,-11.767581 2.22905,-3.349542 4.27068,-6.733758 6.79492,-9.984375 0.69487,-1.109417 1.64324,-2.040086 2.76367,-2.708984 0.71903,-0.193377 1.44961,-0.335104 2.18359,-0.423828 11.07209,-2.031058 21.64312,-4.369288 32.572266,-6.488281 11.53773,-2.230929 23.33657,-4.869672 35.06055,-6.892579 z M 80.220064,66.151066 c 2.02603,0.654 2.42537,1.66758 1.72852,2.97852 -0.69686,1.31093 -9.46847,15.29708 -12.8125,18.58203 -2.12008,2.04013 -5.17097,2.75662 -7.57813,1.71875 -2.45417,-0.98652 -2.18762,-5.44557 -1.35742,-7.40625 0.83019,-1.96066 2.50573,-6.32551 8.36914,-10.57422 5.81642,-4.19739 11.65039,-5.29883 11.65039,-5.29883 z m 108.845706,13.66993 c 1.27854,0.13969 3.47475,1.63834 2.25781,5.75781 -1.1756,4.11989 -3.71587,9.95483 -3.09961,11.81641 0.65558,1.94628 2.08179,2.803724 3.73242,2.947264 1.64961,0.1857 6.14198,0.77981 6.32813,1.625 0.22751,0.8456 0.233,2.32184 -0.85938,3.02734 -1.09342,0.74765 -7.40729,3.63347 -11,3.42774 -3.59377,-0.16359 -7.47807,-2.01613 -8.13672,-3.83594 0,0 -7.4158,5.65822 -11.08789,7.01172 -3.71547,1.43736 -8.01502,3.12043 -12.66211,2.06055 -0.95244,-0.21541 -1.76834,-0.56244 -2.46484,-1.01758 0.24795,1.47387 -1.59526,3.59 -6.31641,5.76172 -5.00732,2.28512 -12.31643,2.62973 -15.41211,2.56445 -3.05395,-0.14871 -11.67937,-0.35629 -14.81836,-0.0488 -3.18027,0.30826 -6.52883,1.23906 -6.90039,1.2461 -0.45437,0.0499 -3.63246,-0.0959 -1.78906,-5.08985 1.84341,-4.99389 6.98242,-8.76953 6.98242,-8.76953 l 20.56836,-17.126954 c 0,0 -17.39224,2.51952 -20.23437,1.375 -1.3182,-0.51222 -2.9212,-1.92804 -3.28516,-3.32617 0,0 -1.13966,-2.9128 0.64453,-4.59961 0.49811,-0.50533 1.61549,-1.06216 2.44141,-1.11914 0.8257,-0.0155 1.40104,0.30349 2.63867,0.44531 1.11357,0.18551 21.64844,-3.17969 21.64844,-3.17969 0,0 6.36405,-1.11187 9.8125,2.41797 2.91441,3.04408 -2.44336,8.84766 -2.44336,8.84766 0,0 -17.85032,18.562874 -18.47071,18.781254 0,0 4.99175,0.44334 6.39454,0.58203 1.40279,0.13869 9.44653,1.34856 12.21484,0.88281 2.76832,-0.46572 3.38803,-0.55955 3.71875,-0.64844 0.18679,-0.0658 0.7174,-0.23189 1.25586,-0.19922 -1.63287,-1.96583 -2.05886,-4.98833 -1.46094,-8.71093 1.26806,-7.913684 20.47261,-25.592884 36.96485,-21.880864 0,0 1.60068,-1.16466 2.83789,-1.02539 z m -165.550786,0.8125 c 4.50688,-0.0444 9.18937,0.78802 13.45313,2.91406 7.95728,3.96773 12.63617,14.23048 9.1543,22.603514 -5.87595,14.13017 -18.50061,18.65622 -24.53321,20.55079 -6.02157,1.89111 -9.36494,1.20784 -9.68554,1.07226 -0.79875,-0.33778 -1.41204,-1.60347 -1.2793,-2.34375 0.15796,-0.88093 0.80866,-1.5042 1.44336,-1.92969 0.45453,-0.3047 2.94048,-1.59046 6.49219,-2.86328 4.65893,-1.66961 16.39796,-8.90952 14.98828,-18.70703 -1.37262,-9.839134 -15.12891,-8.248054 -15.12891,-8.248054 4.30079,2.2835 -21.315953,59.637224 -21.894529,61.154304 -1.386791,3.5696 -4.6321,10.364 -8.310547,10.53906 -3.714616,0.18097 -2.376953,-9.64257 -2.376953,-9.64257 3.239986,-30.86029 23.279299,-59.058604 23.279299,-59.058604 -5.625854,0.84438 -7.717301,-1.1134 -7.972659,-2.0664 -0.19118,-0.7135 -0.986646,-4.39766 4.066407,-8.4043 3.771072,-2.99014 10.793232,-5.49628 18.304682,-5.57031 z m 156.365236,7.86328 c 0,0 -14.31791,2.12804 -17.94922,13.685544 0,0 3.34231,0.24557 6.09766,-0.82226 2.67162,-1.02649 8.58398,-4.380864 8.58398,-4.380864 0,0 0.16183,-1.5156 0.5586,-2.52344 0.39568,-0.96568 2.70898,-5.95898 2.70898,-5.95898 z m -76.7793,3.30859 c 1.77724,0.1216 5.89179,1.59745 4.59961,5.25391 C 107.1024,102.42251 97.552094,111.7585 97.552094,111.7585 l -13.21484,13.68164 c 0,0 6.88761,-2.41784 18.685546,-0.97852 11.79794,1.4394 17.91257,1.90195 20.74609,1.45703 2.79204,-0.44308 8.82166,-1.18813 10.12695,-1.76562 1.30528,-0.5775 2.4128,-0.2253 2.8418,0.51562 0.4705,0.73913 0.22096,1.86949 -1.77148,3.11719 -1.9924,1.2477 -8.91036,5.79282 -21.63477,5.91406 -12.7244,0.1212 -20.154296,0.5293 -20.154296,0.5293 0,0 -8.95792,-0.34986 -16.88085,2.19922 0,0 -8.96918,3.92624 -11.51954,1.11914 -2.55035,-2.80709 -1.48912,-6.38296 -0.043,-8.56641 2.10191,-3.13226 9.08741,-11.69446 28.60937,-27.58593 0,0 -9.81582,1.98414 -15.89453,1.65234 0,0 -8.98812,-0.77658 -6.27149,-6.015634 0,0 1.1262,-2.96083 3.69336,-2.91406 2.56718,0.0468 5.6146,0.52405 10.16407,-0.39648 4.54802,-0.88048 16.289146,-2.0376 18.066396,-1.91602 z m -40.273436,2.44531 c 1.61026,-0.0471 2.73425,0.93557 3.20508,5.863284 0.58363,5.67373 -2.06255,14.0105 -6.49414,22.09766 -2.00136,3.71114 -5.74011,12.77657 -5.6289,13.68555 0,0 1.46825,3.69186 -2.98047,3.78515 -4.44873,0.0934 -7.37494,-6.72654 -6.79688,-12.21875 0.57807,-5.49219 2.08093,-11.44682 15.86719,-30.162114 0,0 0.1568,-2.65397 2.10742,-2.9746 0.24939,-0.0403 0.49067,-0.0694 0.7207,-0.0762 z m 99.662106,32.484384 c 0.63848,0.008 1.34212,0.15801 2.08204,0.54687 2.95966,1.59764 1.70117,5.41797 1.70117,5.41797 l -3.53711,8.20117 c 0,0 8.31017,-1.41914 13.37109,-2.67578 9.67228,-2.40169 11.28906,-2.53125 11.28906,-2.53125 0,0 1.41044,0.66635 1.17188,1.13086 -0.59491,1.15844 -0.13484,0.62936 -1.42578,2.07032 -0.98586,1.71874 -12.53711,6.29492 -12.53711,6.29492 0,0 -11.28209,5.17908 -16.22852,5.54687 l -8.12695,20.02735 -6.52148,18.2207 c 0,0 -0.78573,1.50474 -2.4043,1.5625 -1.61857,0.10003 -2.40492,-2.40594 -2.45117,-3.03516 -0.0925,-0.62516 -0.6926,-9.86076 0.50976,-16.21484 1.20236,-6.35408 5.6875,-17.61914 5.6875,-17.61914 0,0 -10.84374,0.29737 -11.29492,-4.0332 0.41736,-5.83416 4.32971,-5.87595 6.5957,-5.01954 0,0 0.86076,0.5735 2.10938,0.29493 1.24862,-0.27855 5.53515,-0.79493 5.53515,-0.79493 0,0 9.51355,-14.56266 11.22461,-16.14843 0,0 1.33457,-1.26552 3.25,-1.24219 z m -76.921866,13.24609 c 0.66771,-0.003 3.18947,-0.005 2.45508,3.17383 -0.0325,5.93353 -4.08399,21.99609 -4.08399,21.99609 l 5.32813,-2.0664 c 0,0 1.07341,-0.58862 1.66015,0.50976 0.35144,0.68691 -0.3441,1.59143 -0.81835,2.27344 -0.92392,1.32864 -2.6211,2.75977 -2.6211,2.75977 l -4.8418,3.77929 c 0,0 -5.41224,21.96742 -7.54687,24.89844 -2.13462,2.93103 -4.73669,3.88011 -7.01953,3.7207 -2.24111,-0.15961 -4.74449,-2.66146 -4.14649,-7.95703 0.55627,-5.29542 1.7101,-11.96895 1.87891,-12.5625 0,0 -14.88093,5.75428 -17.44531,6.01953 0,0 -5.96342,23.23218 -7.84766,26.16211 -1.70253,3.3022 -4.79306,4.80252 -8.25976,4.39844 -4.3193,-0.28184 -4.88914,-6.22571 -4.69727,-9.40234 0.19184,-3.17659 2.1255,-13.09152 4.48438,-19.07227 0,0 -3.44722,0.0698 -5.50977,-0.46289 -2.31087,-0.59678 -4.06849,-1.1839 -5.25977,-3.06836 0,0 -1.14304,-1.47618 -0.63476,-3.84961 0.55313,-2.41603 3.62109,-3.50195 3.62109,-3.50195 5.23259,-1.33002 12.92578,-2.18749 12.92578,-2.1875 0,0 14.84243,-34.22593 21.07617,-34.46484 7.34611,-0.31905 -5.21679,31.77734 -5.21679,31.77734 0,0 5.40744,-1.06785 8.60156,-1.73242 3.40171,-0.70775 8.16016,-1.90039 8.16016,-1.90039 0,0 4.39459,-15.45247 8.94726,-22.33203 4.51092,-6.87937 6.14282,-6.90529 6.81055,-6.90821 z m 44.126946,8.64649 c 2.98616,0.075 3.08537,1.45527 3.0293,2.65429 0,0 -0.34828,2.8328 -0.89844,5.375 -1.39489,6.44557 -2.49622,21.88437 -2.2832,22.22461 0.79816,0.70745 1.38091,2.72944 -1.17969,4.31055 0,0 -3.18896,0.52343 -4.85156,-1.55273 -1.158,-1.28654 -3.98213,-2.79431 -5.36524,-9.85352 0,0 -5.05584,7.55244 -11.82031,10.95898 -6.764466,3.40653 -9.653776,3.97726 -13.798826,1.53907 -4.14601,-2.39797 -1.00781,-11.42774 -1.00781,-11.42774 0,0 3.54649,-9.43291 3.5957,-9.63867 0.0503,-0.24603 0.52528,-1.53847 0.14454,-2.26367 0,0 -0.8429,-1.76225 -2.68555,-2.42188 -1.84169,-0.69989 -2.13126,-1.51585 -1.22266,-2.49023 0.81892,-0.92524 4.56575,-2.22279 8.27539,-1.91016 3.754986,0.26792 6.230266,4.1187 6.472656,6.90625 0.24238,2.78757 -0.27005,7.45699 -2.47266,12.53711 0,0 13.44843,-8.47367 16.94336,-13.92383 0,0 3.63564,-7.47186 5.57617,-9.03125 0,0 1.78186,-2.08533 3.54883,-1.99218 z"
       sodipodi:nodetypes="ccccccccccccccccccccccccccccccccccccccccccccccccccccccccccccccccccccccccccccccccccccccccccccccccccccccccccccccccccccccccccccccccccccccccccccccccccccccccccccccccccccccccccccccccccccccccccccccccccccc" />
  </g>
</svg>
